<ttFont>
<head>
    <!-- Most of this table will be recalculated by the compiler -->
    <tableVersion value="1.0"/>
    <fontRevision value="1.0"/>
    <checkSumAdjustment value="0x800ed652"/>
    <magicNumber value="0x5f0f3cf5"/>
    <flags value="00000000 00000011"/>
    <unitsPerEm value="2048"/>
    <created value="Thu Aug 15 19:07:06 2019"/>
    <modified value="Fri Aug 16 02:18:55 2019"/>
    <xMin value="-553"/>
    <yMin value="-508"/>
    <xMax value="3635"/>
    <yMax value="2037"/>
<macStyle value="00000000 00000000"/>
    <lowestRecPPEM value="3"/>
    <fontDirectionHint value="2"/>
    <indexToLocFormat value="0"/>
    <glyphDataFormat value="0"/>
  </head>
          <CharString index="0">
            -612 4 callsubr
            return
          </CharString>
          <CharString index="1">
            -686 -57 vlineto
            -20 callsubr
            return
          </CharString>
          <CharString index="2">
            319 -249 200 -342 -342 -251 -216 -312 return
          </CharString>
          <CharString index="3">
            599 57 vlineto
            -79 16 -13 19 72 vvcurveto
            return
          </CharString>
          <CharString index="4">
            rmoveto
            68 callsubr
            return
          </CharString>
          <CharString index="5">
            445 -333 297 -457 -85 callgsubr
            -99 callgsubr
            222 64 callsubr
            endchar
          </CharString>
          <CharString index="6">
            rmoveto
            343 251 217 312 return
          </CharString>
          <CharString index="7">
            -1052 38 callsubr
            return
          </CharString>
          <CharString index="8">
            157 callsubr
            endchar
          </CharString>
          <CharString index="9">
            rmoveto
            -16 callsubr
            62 callsubr
            endchar
          </CharString>
          <CharString index="10">
            rmoveto
            174 135 70 110 35 hvcurveto
            return
          </CharString>
          <CharString index="11">
            -1052 vlineto
            -91 -22 -26 return
          </CharString>
          <CharString index="12">
            rmoveto
            -507 -63 0 -54 47 return
          </CharString>
          <CharString index="13">
            52 callsubr
            endchar
          </CharString>
          <CharString index="14">
            -109 -22 vhcurveto
            -57 686 57 vlineto
            return
          </CharString>
          <CharString index="15">
            rmoveto
            -8 callsubr
            40 callsubr
            -31 callsubr
            -1 callsubr
            endchar
          </CharString>
          <CharString index="16">
            -15 rlineto
            -76 callsubr
            return
          </CharString>
          <CharString index="17">
            -74 callsubr
            endchar
          </CharString>
          <CharString index="18">
            622 vlineto
            48 24 55 33 70 hhcurveto
            99 57 -58 -118 hvcurveto
            -527 vlineto
            -72 -15 -19 -78 -16 vhcurveto
            -57 599 57 vlineto
            -94 18 -18 22 74 vvcurveto
            528 vlineto
            222 -139 106 -208 -180 return
          </CharString>
          <CharString index="19">
            rmoveto
            95 76 65 89 90 -76 65 -95 return
          </CharString>
          <CharString index="20">
            61 callsubr
            endchar
          </CharString>
          <CharString index="21">
            rmoveto
            41 callsubr
            return
          </CharString>
          <CharString index="22">
            rmoveto
            -85 -70 -62 -85 -85 70 -62 85 -16 callgsubr
          </CharString>
          <CharString index="23">
            27 callsubr
            8 -16 -71 vvcurveto
            -474 vlineto
            -223 134 -107 200 179 125 81 118 50 vhcurveto
            -191 vlineto
            return
          </CharString>
          <CharString index="24">
            rmoveto
            -36 callgsubr
            217 callsubr
            endchar
          </CharString>
          <CharString index="25">
            1109 rmoveto
            445 381 rlineto
            7 return
          </CharString>
          <CharString index="26">
            60 callsubr
            endchar
          </CharString>
          <CharString index="27">
            50 callsubr
            endchar
          </CharString>
          <CharString index="28">
            -94 -77 -65 -90 -89 77 -65 94 hvcurveto
            endchar
          </CharString>
          <CharString index="29">
            rmoveto
            631 171 -631 hlineto
            endchar
          </CharString>
          <CharString index="30">
            rmoveto
            1052 37 callsubr
            return
          </CharString>
          <CharString index="31">
            57 -20 8 -16 -71 vvcurveto
            return
          </CharString>
          <CharString index="32">
            -48 callsubr
            -393 vlineto
            -106 -299 rlineto
            return
          </CharString>
          <CharString index="33">
            619 57 vlineto
            -94 18 -18 22 74 vvcurveto
            return
          </CharString>
          <CharString index="34">
            rmoveto
            -504 -63 0 -54 47 -15 rlineto
            return
          </CharString>
          <CharString index="35">
            1109 rmoveto
            274 179 return
          </CharString>
          <CharString index="36">
            108 -22 23 -26 -91 vvcurveto
            return
          </CharString>
          <CharString index="37">
            29 -1 rrcurveto
            56 -1 42 -22 -42 vvcurveto
            -41 -38 -24 -62 return
          </CharString>
          <CharString index="38">
            1052 vlineto
            93 23 25 108 21 vhcurveto
            57 return
          </CharString>
          <CharString index="39">
            rmoveto
            364 -855 -77 -117 -141 -167 -103 -97 rlinecurve
            -5 280 vlineto
            148 408 156 368 181 439 61 149 29 28 80 17 rlinecurve
            58 -344 -58 vlineto
            109 -15 9 -34 -46 -137 rrcurveto
            -137 -407 -137 409 -45 136 7 35 113 13 rlinecurve
            58 -659 -58 vlineto
            76 -16 24 -26 52 -126 rrcurveto
            endchar
          </CharString>
          <CharString index="40">
            1523 rmoveto
            -274 -179 return
          </CharString>
          <CharString index="41">
            -393 vlineto
            -123 -388 rlineto
            return
          </CharString>
          <CharString index="42">
            -677 -77 callgsubr
            return
          </CharString>
          <CharString index="43">
            rmoveto
            303 -557 rlineto
            -422 -88 callgsubr
            707 86 callsubr
            447 vlineto
            278 -67 callgsubr
            226 callsubr
            endchar
          </CharString>
          <CharString index="44">
            1529 rmoveto
            87 70 62 84 85 -70 61 -101 callgsubr
            return
          </CharString>
          <CharString index="45">
            552 1507 -95 callsubr
            -44 callsubr
            -43 callsubr
            return
          </CharString>
          <CharString index="46">
            -418 rlineto
            54 hlineto
            53 244 84 78 214 26 39 5 rcurveline
            return
          </CharString>
          <CharString index="47">
            vlineto
            40 -5 216 -26 83 -81 52 -241 rlinecurve
            54 hlineto
            return
          </CharString>
          <CharString index="48">
            -97 -73 -43 -55 -31 hvcurveto
            -48 vlineto
            18 8 28 7 return
          </CharString>
          <CharString index="49">
            549 1022 -73 callsubr
            return
          </CharString>
          <CharString index="50">
            -63 -57 -78 -78 63 -57 79 hvcurveto
            return
          </CharString>
          <CharString index="51">
            1 -44 rlineto
            5 9 20 4 return
          </CharString>
          <CharString index="52">
            35 100 vvcurveto
            1168 return
          </CharString>
          <CharString index="53">
            -482 -501 482 vlineto
            86 22 25 99 20 vhcurveto
            57 85 callsubr
            -100 callsubr
            return
          </CharString>
          <CharString index="54">
            273 -179 72 0 -233 388 -225 0 -233 -388 rlineto
            return
          </CharString>
          <CharString index="55">
            79 63 57 78 78 -63 57 -79 -78 -64 -57 -78 -78 64 -57 78 hvcurveto
            return
          </CharString>
          <CharString index="56">
            1541 rmoveto
            78 64 57 78 78 -64 57 -78 -79 return
          </CharString>
          <CharString index="57">
            1581 rmoveto
            611 161 -611 hlineto
            return
          </CharString>
          <CharString index="58">
            rmoveto
            255 161 254 -161 67 0 return
          </CharString>
          <CharString index="59">
            1525 rmoveto
            427 294 rlineto
            6 return
          </CharString>
          <CharString index="60">
            36 callsubr
            -97 66 -125 return
          </CharString>
          <CharString index="61">
            -1168 88 callsubr
            return
          </CharString>
          <CharString index="62">
            708 57 vlineto
            -118 19 -25 return
          </CharString>
          <CharString index="63">
            -16 rlineto
            57 -20 8 -15 -71 vvcurveto
            return
          </CharString>
          <CharString index="64">
            -1097 4 callsubr
            return
          </CharString>
          <CharString index="65">
            18 hhcurveto
            54 38 -25 -43 -44 return
          </CharString>
          <CharString index="66">
            1529 rmoveto
            118 callsubr
            return
          </CharString>
          <CharString index="67">
            1525 rmoveto
            257 133 257 -133 return
          </CharString>
          <CharString index="68">
            1338 1444 rmoveto
            -1288 hlineto
            -12 return
          </CharString>
          <CharString index="69">
            317 94 317 -94 0 57 -296 225 return
          </CharString>
          <CharString index="70">
            -73 vvcurveto
            -665 4 callsubr
            return
          </CharString>
          <CharString index="71">
            229 0 213 299 rlineto
            return
          </CharString>
          <CharString index="72">
            rmoveto
            635 155 -635 hlineto
            return
          </CharString>
          <CharString index="73">
            -57 hlineto
            -71 callsubr
            return
          </CharString>
          <CharString index="74">
            rmoveto
            -165 154 -102 200 -25 vhcurveto
            -230 -20 -127 -101 -139 vvcurveto
            -1 -144 151 -91 227 1 rrcurveto
            -297 -8 -113 -68 -102 vvcurveto
            -131 1 201 -90 347 hhcurveto
            336 247 156 225 1 hvcurveto
            202 -150 125 -308 vhcurveto
            -166 hlineto
            -113 -54 30 53 46 38 30 60 12 hvcurveto
            -4 40 38 -3 41 hhcurveto
            295 221 117 198 103 -73 88 -112 37 hvcurveto
            279 -24 0 103 -346 -25 rlineto
            27 -73 -96 18 -104 hhcurveto
            -301 -213 -132 -197 hvcurveto
            384 13 rmoveto
            152 43 94 91 87 52 -98 -157 -152 -44 -95 -90 -86 -53 99 157 vhcurveto
            -93 -956 rmoveto
            85 56 54 94 7 vhcurveto
            136 hlineto
            135 62 -54 -87 -103 -102 -69 -153 -141 -87 67 100 hvcurveto
            endchar
          </CharString>
          <CharString index="75">
            -233 139 -96 184 139 122 61 66 46 vhcurveto
            101 callgsubr
            14 callgsubr
            return
          </CharString>
          <CharString index="76">
            -91 -81 -277 -15 rrcurveto
            -178 -8 0 641 161 -5 132 -7 36 -57 30 -154 rlinecurve
            50 510 -50 hlineto
            -31 -153 return
          </CharString>
          <CharString index="77">
            -252 -139 317 356 397 148 266 241 -8 callgsubr
          </CharString>
          <CharString index="78">
            141 119 68 121 117 -106 67 -125 -14 -13 -1 -1 -12 hvcurveto
            return
          </CharString>
          <CharString index="79">
            1150 rmoveto
            127 88 95 233 -15 hvcurveto
            -66 hlineto
            -97 return
          </CharString>
          <CharString index="80">
            rmoveto
            201 130 87 145 -6 hvcurveto
            -67 hlineto
            -52 -7 return
          </CharString>
          <CharString index="81">
            96 78 68 94 94 -78 68 -96 0 callsubr
            return
          </CharString>
          <CharString index="82">
            1844 rmoveto
            -257 -132 -257 132 return
          </CharString>
          <CharString index="83">
            1139 rmoveto
            102 82 72 99 100 -82 72 -102 return
          </CharString>
          <CharString index="84">
            -304 190 -43 0 -304 -190 rlineto
            return
          </CharString>
          <CharString index="85">
            190 -44 0 -303 -190 rlineto
            return
          </CharString>
          <CharString index="86">
            -126 -80 -118 -49 vhcurveto
            return
          </CharString>
          <CharString index="87">
            109 -22 22 -26 -91 vvcurveto
            return
          </CharString>
          <CharString index="88">
            -57 hlineto
            -20 callsubr
            return
          </CharString>
          <CharString index="89">
            rmoveto
            279 -782 235 0 242 697 249 -697 235 0 255 740 56 166 33 28 76 16 rlinecurve
            58 -326 -58 vlineto
            95 -14 11 -35 -41 -154 rrcurveto
            -120 -423 -117 422 -41 154 9 39 95 11 rlinecurve
            58 -613 -58 vlineto
            90 -13 11 -36 -40 -152 rrcurveto
            -120 -425 -115 422 -40 154 7 39 97 11 rlinecurve
            58 -649 -58 vlineto
            74 -17 30 -29 43 -122 rrcurveto
            endchar
          </CharString>
          <CharString index="90">
            rmoveto
            -440 324 -301 490 216 215 49 88 123 vhcurveto
            415 vlineto
            86 21 27 101 14 vhcurveto
            56 -624 -56 vlineto
            106 -14 22 -26 -87 vvcurveto
            -428 vlineto
            -26 -28 -60 -20 -70 hhcurveto
            -240 -128 312 361 397 142 266 250 202 138 -194 -239 53 hvcurveto
            54 hlineto
            -8 424 rlineto
            54 -85 -167 33 -205 hhcurveto
            -466 -376 -256 -495 hvcurveto
            endchar
          </CharString>
          <CharString index="91">
            -406 1166 -306 0 -401 -1136 -70 -197 -33 -36 -102 -20 rlinecurve
            -57 411 57 vlineto
            -133 22 -23 42 58 185 rrcurveto
            56 178 431 0 62 -191 56 -173 -26 -43 -126 -20 rlinecurve
            -57 return
          </CharString>
          <CharString index="92">
            66 52 41 59 59 -91 callgsubr
            -59 141 callsubr
            59 -92 callgsubr
            -59 -59 53 -41 65 hvcurveto
            return
          </CharString>
          <CharString index="93">
            rmoveto
            -473 363 -274 476 191 172 40 54 80 vhcurveto
            9 428 rlineto
            -38 callgsubr
            return
          </CharString>
          <CharString index="94">
            -273 179 -72 0 233 -388 225 0 233 388 rlineto
            return
          </CharString>
          <CharString index="95">
            355 hmoveto
            78 64 57 78 78 -64 57 -78 -79 -57 callsubr
            return
          </CharString>
          <CharString index="96">
            -506 -63 0 -54 48 -15 rlineto
            55 -20 9 -16 -71 vvcurveto
            return
          </CharString>
          <CharString index="97">
            71 0 -213 299 -229 0 -213 -299 rlineto
            return
          </CharString>
          <CharString index="98">
            12 481 rlineto
            -55 hlineto
            -68 -299 -103 -96 -242 -14 return
          </CharString>
          <CharString index="99">
            -1163 -34 callsubr
            -100 callsubr
            return
          </CharString>
          <CharString index="100">
            rmoveto
            -326 176 -188 230 159 121 return
          </CharString>
          <CharString index="101">
            1149 rmoveto
            96 78 68 94 94 -78 68 -96 return
          </CharString>
          <CharString index="102">
            1525 rmoveto
            71 -87 callgsubr
            return
          </CharString>
          <CharString index="103">
            -96 callsubr
            -109 -22 vhcurveto
            -57 return
          </CharString>
          <CharString index="104">
            676 57 vlineto
            -100 19 -21 26 86 vvcurveto
            return
          </CharString>
          <CharString index="105">
            612 1444 151 callsubr
            return
          </CharString>
          <CharString index="106">
            -35 -58 -132 28 callgsubr
            return
          </CharString>
          <CharString index="107">
            -96 -77 -68 -94 -94 77 -68 96 hvcurveto
            return
          </CharString>
          <CharString index="108">
            -102 -82 -72 -100 -99 82 -72 102 hvcurveto
            return
          </CharString>
          <CharString index="109">
            1844 rmoveto
            -258 -132 return
          </CharString>
          <CharString index="110">
            -394 vlineto
            -123 -388 rlineto
            return
          </CharString>
          <CharString index="111">
            vlineto
            -74 -18 -22 -94 -18 vhcurveto
            -57 return
          </CharString>
          <CharString index="112">
            1727 77 719 rmoveto
            return
          </CharString>
          <CharString index="113">
            788 147 308 rmoveto
            return
          </CharString>
          <CharString index="114">
            196 -77 callsubr
            return
          </CharString>
          <CharString index="115">
            rmoveto
            351 -1166 289 0 333 1122 324 -1122 293 0 347 1137 59 196 35 37 100 19 rlinecurve
            57 -403 -57 vlineto
            127 -20 18 -41 -46 -183 rrcurveto
            -209 -804 -220 838 -42 157 8 32 119 21 rlinecurve
            57 -688 -57 vlineto
            118 -20 12 -32 -40 -155 rrcurveto
            -217 -840 -218 822 -41 164 21 41 130 20 rlinecurve
            57 -742 -57 vlineto
            97 -18 35 -38 50 -167 rrcurveto
            endchar
          </CharString>
          <CharString index="116">
            rmoveto
            508 81 vlineto
            357 -696 rlineto
            492 55 hlineto
            -60 25 -36 39 -119 226 rrcurveto
            -342 669 141 143 157 152 77 49 124 29 rlinecurve
            57 -448 -57 vlineto
            121 -20 9 -36 -114 -136 -358 -428 rcurveline
            -82 489 hlineto
            51 callsubr
            -676 -57 vlineto
            -71 callsubr
            -100 callsubr
            -21 callgsubr
            endchar
          </CharString>
          <CharString index="117">
            1715 607 188 rmoveto
            53 callgsubr
            return
          </CharString>
          <CharString index="118">
            rmoveto
            188 160 71 112 80 hvcurveto
            154 callsubr
            -326 252 -195 307 vhcurveto
            endchar
          </CharString>
          <CharString index="119">
            12 452 rlineto
            -54 hlineto
            -69 -289 -98 -74 -310 -39 callgsubr
            -1 callgsubr
            endchar
          </CharString>
          <CharString index="120">
            75 123 47 vhcurveto
            -190 vlineto
            506 54 0 53 -49 17 rlineto
            -57 19 -9 16 return
          </CharString>
          <CharString index="121">
            1497 rmoveto
            -350 -7 hlineto
            387 -381 rlineto
            80 75 callgsubr
            return
          </CharString>
          <CharString index="122">
            -125 -7 rcurveline
            1174 58 callgsubr
            -100 callsubr
            vlineto
            return
          </CharString>
          <CharString index="123">
            1237 1188 hmoveto
            -9 callsubr
            15 callsubr
            return
          </CharString>
          <CharString index="124">
            rmoveto
            121 73 81 151 -4 hvcurveto
            -65 hlineto
            -58 -1 -27 -24 -54 hhcurveto
            return
          </CharString>
          <CharString index="125">
            -939 vlineto
            -378 -66 -151 -199 -132 vhcurveto
            22 -49 rlineto
            return
          </CharString>
          <CharString index="126">
            -51 -54 17 24 -28 vhcurveto
            -1 -50 rlineto
            -55 41 85 -39 102 hhcurveto
            endchar
          </CharString>
          <CharString index="127">
            1872 rmoveto
            -115 -83 -60 -69 -35 hvcurveto
            1 -42 rlineto
            21 return
          </CharString>
          <CharString index="128">
            8 14 -41 hvcurveto
            -39 13 rlineto
            16 -51 -50 13 -52 hhcurveto
            -121 return
          </CharString>
          <CharString index="129">
            rmoveto
            277 380 rlineto
            8 -330 vlineto
            -25 -388 rlineto
            endchar
          </CharString>
          <CharString index="130">
            1109 rmoveto
            72 hlineto
            -114 388 rlineto
            -406 -7 hlineto
            return
          </CharString>
          <CharString index="131">
            -12 hlineto
            -69 -55 -49 123 callsubr
            49 -69 hvcurveto
            return
          </CharString>
          <CharString index="132">
            1364 530 1022 -84 callsubr
            return
          </CharString>
          <CharString index="133">
            1197 rmoveto
            679 191 -679 hlineto
            return
          </CharString>
          <CharString index="134">
            rmoveto
            -506 -63 0 -54 47 -15 rlineto
            56 -20 return
          </CharString>
          <CharString index="135">
            1599 746 116 callsubr
            return
          </CharString>
          <CharString index="136">
            -274 179 -72 0 233 -388 return
          </CharString>
          <CharString index="137">
            274 -179 72 0 -233 388 return
          </CharString>
          <CharString index="138">
            rmoveto
            69 56 49 68 70 -56 49 -69 hvcurveto
            return
          </CharString>
          <CharString index="139">
            373 hmoveto
            69 55 49 68 70 -55 return
          </CharString>
          <CharString index="140">
            -2 -32 -37 -53 hhcurveto
            -34 -28 13 30 return
          </CharString>
          <CharString index="141">
            -45 hvcurveto
            -32 21 rlineto
            40 -62 -54 22 return
          </CharString>
          <CharString index="142">
            rmoveto
            194 vlineto
            -634 -245 rlineto
            return
          </CharString>
          <CharString index="143">
            rmoveto
            150 106 71 115 113 return
          </CharString>
          <CharString index="144">
            vlineto
            91 22 26 109 22 vhcurveto
            57 return
          </CharString>
          <CharString index="145">
            vlineto
            -91 -23 -26 -108 -22 vhcurveto
            -57 return
          </CharString>
          <CharString index="146">
            1525 rmoveto
            258 133 return
          </CharString>
          <CharString index="147">
            1208 -13 callgsubr
            return
          </CharString>
          <CharString index="148">
            -327 251 -194 309 return
          </CharString>
          <CharString index="149">
            215 157 156 234 return
          </CharString>
          <CharString index="150">
            54 hhcurveto
            31 33 -9 -12 41 hvcurveto
            return
          </CharString>
          <CharString index="151">
            rmoveto
            652 132 -652 hlineto
            return
          </CharString>
          <CharString index="152">
            vlineto
            -72 -14 -19 -79 -16 vhcurveto
            -57 return
          </CharString>
          <CharString index="153">
            1500 rmoveto
            195 vlineto
            return
          </CharString>
          <CharString index="154">
            1139 64 500 rmoveto
            return
          </CharString>
          <CharString index="155">
            -393 vlineto
            -105 -299 rlineto
            return
          </CharString>
          <CharString index="156">
            -127 -81 -118 -48 vhcurveto
            return
          </CharString>
          <CharString index="157">
            -109 22 -22 26 91 vvcurveto
            return
          </CharString>
          <CharString index="158">
            86 21 25 100 20 vhcurveto
            57 return
          </CharString>
          <CharString index="159">
            -116 20 125 -59 131 hhcurveto
            97 87 25 32 46 hvcurveto
            54 vlineto
            -3 -9 -14 -2 -14 hhcurveto
            -51 -40 35 81 hvcurveto
            463 vlineto
            247 -180 111 -313 -305 -176 -121 -145 -90 74 -67 94 95 75 71 91 72 -47 59 -64 20 vhcurveto
            13 37 41 7 43 hhcurveto
            157 84 -71 -180 hvcurveto
            -105 vlineto
            -192 -38 rlineto
            -324 -62 -117 -108 -152 vvcurveto
            -145 117 -97 179 vhcurveto
            88 302 rmoveto
            113 54 77 144 35 vhcurveto
            51 11 rlineto
            -316 vlineto
            -49 -20 -45 -28 -60 hhcurveto
            -71 -53 54 103 hvcurveto
            return
          </CharString>
          <CharString index="160">
            rmoveto
            -125 -187 -47 -39 -103 -20 rrcurveto
            -57 408 57 vlineto
            -129 21 -4 38 101 173 rrcurveto
            187 317 201 -341 86 -149 -5 -36 -129 -23 rlinecurve
            -57 741 57 vlineto
            -87 28 -47 47 -84 145 rrcurveto
            -305 518 234 349 123 184 47 39 104 20 rlinecurve
            57 -406 -57 vlineto
            128 -21 4 -38 -100 -171 rrcurveto
            -173 -296 -188 318 -87 152 4 34 131 22 rlinecurve
            57 -739 -57 vlineto
            88 -28 43 -47 85 -145 292 -494 rcurveline
            endchar
          </CharString>
          <CharString index="161">
            rmoveto
            -391 275 -178 352 363 212 223 342 3 vhcurveto
            7 853 rlineto
            -6 31 33 -4 33 hhcurveto
            145 98 65 113 108 -86 101 -146 47 hvcurveto
            -56 hlineto
            24 -26 18 -57 -57 vvcurveto
            -126 -1 -93 -108 -177 hhcurveto
            -69 -57 hlineto
            129 -22 19 -31 1 -141 8 -643 rcurveline
            -264 2 -135 -162 -213 hhcurveto
            -214 -139 132 297 hvcurveto
            695 vlineto
            91 24 26 125 22 vhcurveto
            57 -712 -57 vlineto
            115 -22 24 -26 -91 vvcurveto
            endchar
          </CharString>
          <CharString index="162">
            rmoveto
            -512 -63 -104 callgsubr
            -474 vlineto
            -223 133 -107 199 180 125 81 118 49 vhcurveto
            -191 vlineto
            514 54 0 53 -53 17 rlineto
            -60 19 -9 16 70 vvcurveto
            737 vlineto
            -2 18 19 -1 21 hhcurveto
            116 93 58 111 1 hvcurveto
            106 -94 101 -156 42 vhcurveto
            -57 hlineto
            23 -25 19 -52 -61 vvcurveto
            -140 -103 -91 -282 -28 vhcurveto
            -130 -12 -104 callgsubr
            -564 vlineto
            -47 -25 -50 -33 -67 hhcurveto
            -95 -53 59 118 hvcurveto
            endchar
          </CharString>
          <CharString index="163">
            rmoveto
            -587 -57 hlineto
            104 -17 29 -42 -4 -97 rrcurveto
            -34 -965 -6 -153 -20 -38 -110 -18 rlinecurve
            -57 381 57 vlineto
            -116 22 -19 34 154 vvcurveto
            988 vlineto
            405 -1255 228 0 106 404 275 849 27 -1061 2 -90 -26 -27 -107 -18 rlinecurve
            -57 688 57 vlineto
            -112 19 -22 27 -3 93 rrcurveto
            -31 1052 -2 92 26 28 109 19 rlinecurve
            57 vlineto
            -590 1 -283 -980 rlineto
            endchar
          </CharString>
          <CharString index="164">
            311 -170 240 -245 111 vhcurveto
            -12 53 56 -7 56 hhcurveto
            165 113 66 122 1 hvcurveto
            108 -89 107 -150 46 vhcurveto
            -57 hlineto
            25 -26 18 -57 -1 -57 rrcurveto
            -129 -1 -92 -103 -161 -100 -94 22 -117 188 callsubr
            64 callsubr
            endchar
          </CharString>
          <CharString index="165">
            rmoveto
            276 -242 144 -426 vhcurveto
            -700 -34 callsubr
            -100 callsubr
            696 -95 callgsubr
            365 145 vlineto
            376 292 152 296 hvcurveto
            -445 -17 rmoveto
            -212 -109 -141 -199 -10 vhcurveto
            -60 -3 0 738 60 -3 rlineto
            212 -11 96 -148 -210 vvcurveto
            endchar
          </CharString>
          <CharString index="166">
            55 -19 10 -17 -71 vvcurveto
            -613 94 callsubr
            632 57 vlineto
            -106 19 -19 23 80 vvcurveto
            -1 489 rlineto
            35 41 97 22 99 hhcurveto
            66 67 -11 -13 34 hvcurveto
            13 28 11 49 52 vvcurveto
            107 -49 86 -100 -110 -86 -92 -226 -87 vhcurveto
            return
          </CharString>
          <CharString index="167">
            503 54 0 54 -47 15 rlineto
            -56 20 -9 16 71 vvcurveto
            805 vlineto
            -11 callsubr
            -564 vlineto
            -47 -24 -51 -33 -67 hhcurveto
            -95 -53 59 118 hvcurveto
            return
          </CharString>
          <CharString index="168">
            197 164 68 118 78 vhcurveto
            -1 57 rlineto
            -48 -49 -82 -35 -91 hhcurveto
            -194 -147 130 251 -35 hvcurveto
            215 callsubr
            return
          </CharString>
          <CharString index="169">
            746 57 vlineto
            -101 20 -35 39 -58 164 rrcurveto
            -924 284 rmoveto
            188 593 192 -593 rlineto
            return
          </CharString>
          <CharString index="170">
            1130 rmoveto
            106 87 76 104 105 -87 76 -106 -107 -86 -76 -105 -104 86 -76 107 hvcurveto
            217 -108 rmoveto
            return
          </CharString>
          <CharString index="171">
            202 123 -266 -411 -402 -92 -257 -221 -203 -122 267 411 vhcurveto
            return
          </CharString>
          <CharString index="172">
            1338 64 493 -7 callsubr
            13 callsubr
            -56 callgsubr
            return
          </CharString>
          <CharString index="173">
            107 86 76 104 105 -86 76 -107 -107 -86 -76 -105 -104 86 -76 107 hvcurveto
            return
          </CharString>
          <CharString index="174">
            rmoveto
            -7 -357 rlineto
            55 hlineto
            50 207 65 103 callsubr
            endchar
          </CharString>
          <CharString index="175">
            -445 332 -298 459 470 313 327 423 return
          </CharString>
          <CharString index="176">
            -158 -157 -234 -233 158 -157 210 hvcurveto
            return
          </CharString>
          <CharString index="177">
            -88 -95 -235 16 hvcurveto
            66 hlineto
            99 1 32 36 53 hhcurveto
            34 return
          </CharString>
          <CharString index="178">
            1872 rmoveto
            650 -90 0 47 -650 208 rlineto
            return
          </CharString>
          <CharString index="179">
            96 77 68 94 94 -77 68 -96 -96 -76 callgsubr
            return
          </CharString>
          <CharString index="180">
            49 -69 hvcurveto
            -13 hlineto
            -69 -55 -49 -70 -68 55 -49 69 hvcurveto
            return
          </CharString>
          <CharString index="181">
            -645 vlineto
            -324 -38 -110 -146 -133 vhcurveto
            return
          </CharString>
          <CharString index="182">
            -216 349 -210 0 -216 -349 rlineto
            endchar
          </CharString>
          <CharString index="183">
            1540 rmoveto
            116 84 84 213 -14 hvcurveto
            return
          </CharString>
          <CharString index="184">
            483 hmoveto
            96 77 68 94 94 -77 68 -96 -96 return
          </CharString>
          <CharString index="185">
            rmoveto
            124 73 69 128 -3 hvcurveto
            -66 hlineto
            -48 return
          </CharString>
          <CharString index="186">
            1225 357 -21 -97 callsubr
            return
          </CharString>
          <CharString index="187">
            1197 rmoveto
            678 191 -678 hlineto
            return
          </CharString>
          <CharString index="188">
            86 210 -15 hvcurveto
            -61 hlineto
            -88 -1 -30 -33 return
          </CharString>
          <CharString index="189">
            -13 hlineto
            -68 -56 -49 -70 -68 56 -49 68 hvcurveto
            return
          </CharString>
          <CharString index="190">
            -257 132 -71 0 213 -299 return
          </CharString>
          <CharString index="191">
            234 -158 157 -210 -214 return
          </CharString>
          <CharString index="192">
            -676 -57 vlineto
            -20 callsubr
            return
          </CharString>
          <CharString index="193">
            57 vlineto
            -118 19 -24 35 100 vvcurveto
            return
          </CharString>
          <CharString index="194">
            9 -16 -71 vvcurveto
            74 callsubr
            return
          </CharString>
          <CharString index="195">
            vlineto
            -100 -24 -35 -118 -19 vhcurveto
            -57 return
          </CharString>
          <CharString index="196">
            1872 -103 callgsubr
            return
          </CharString>
          <CharString index="197">
            654 -21 -101 callsubr
            return
          </CharString>
          <CharString index="198">
            113 131 361 vvcurveto
            endchar
          </CharString>
          <CharString index="199">
            112 131 361 vvcurveto
            endchar
          </CharString>
          <CharString index="200">
            -46 81 45 rlineto
            355 194 return
          </CharString>
          <CharString index="201">
            vlineto
            -73 -18 -23 -94 -17 vhcurveto
            -57 return
          </CharString>
          <CharString index="202">
            rmoveto
            356 269 168 299 222 -128 160 -271 89 hvcurveto
            -131 43 rlineto
            -164 54 -73 70 111 vvcurveto
            116 86 82 160 187 137 -154 -226 49 vhcurveto
            54 hlineto
            -7 371 rlineto
            51 -82 -154 36 -191 hhcurveto
            -383 -239 -171 -285 -217 139 -151 259 -84 hvcurveto
            131 -43 rlineto
            170 -56 69 -77 -116 vvcurveto
            -126 -98 -88 -156 -202 -188 169 273 -55 vhcurveto
            -54 hlineto
            13 -426 rlineto
            -55 108 185 -39 204 hhcurveto
            return
          </CharString>
          <CharString index="203">
            rmoveto
            -224 353 160 221 87 129 45 32 81 16 rlinecurve
            58 -354 -58 vlineto
            99 -17 8 -29 -71 -126 rrcurveto
            -98 -158 -102 159 -74 124 11 34 101 13 rlinecurve
            58 -635 -58 vlineto
            58 -13 34 -28 64 -98 rrcurveto
            225 -354 -158 -211 -96 -136 -43 -32 -87 -20 rlinecurve
            -57 362 57 vlineto
            -95 17 -12 31 73 126 rrcurveto
            99 158 99 -157 76 -127 -13 -34 -100 -14 rlinecurve
            -57 637 57 vlineto
            -58 14 -35 29 -64 98 rrcurveto
            endchar
          </CharString>
          <CharString index="204">
            rmoveto
            -172 122 -96 189 -61 vhcurveto
            87 -28 rlineto
            107 -35 47 -42 -70 vvcurveto
            -73 -63 -50 -111 -153 -131 124 174 -40 vhcurveto
            -54 hlineto
            9 -294 rlineto
            -45 82 151 -34 146 hhcurveto
            302 207 124 218 174 -103 102 -203 65 hvcurveto
            -87 27 rlineto
            -106 36 -54 37 69 vvcurveto
            70 58 49 111 133 95 -94 -160 42 vhcurveto
            55 hlineto
            -5 272 rlineto
            30 -59 -121 27 -146 hhcurveto
            -323 -184 -130 -214 hvcurveto
            return
          </CharString>
          <CharString index="205">
            rmoveto
            -121 -101 70 callgsubr
            -60 -6 -206 -62 vvcurveto
            -267 151 -156 274 302 216 271 364 267 -91 146 -147 -135 -78 -133 -164 37 vhcurveto
            170 -24 103 -142 -168 vvcurveto
            -155 -86 -93 -119 -123 -74 90 175 -1 vhcurveto
            68 6 177 57 vvcurveto
            206 -82 103 -174 vhcurveto
            endchar
          </CharString>
          <CharString index="206">
            1649 824 -24 rmoveto
            411 337 337 410 410 -337 337 -411 -410 -337 -337 -410 -410 338 -337 409 hvcurveto
            48 vmoveto
            -380 -314 315 384 384 313 315 381 381 313 -315 -384 -384 -313 -315 -381 hvcurveto
            return
          </CharString>
          <CharString index="207">
            rmoveto
            197 127 103 171 -7 hvcurveto
            -64 hlineto
            -61 -9 -102 -40 -142 hhcurveto
            -141 -102 40 61 -9 hvcurveto
            -64 hlineto
            -171 -7 127 -103 196 hhcurveto
            -207 -1115 -97 callsubr
            -94 callsubr
          </CharString>
          <CharString index="208">
            rmoveto
            232 -202 124 -302 11 vhcurveto
            233 10 213 100 203 vvcurveto
            230 -247 112 -404 vhcurveto
            -691 -19 callsubr
            -100 callsubr
            207 callsubr
            endchar
          </CharString>
          <CharString index="209">
            rmoveto
            11 -699 rlineto
            -230 4 114 -99 192 hhcurveto
            151 122 79 98 62 hvcurveto
            55 vlineto
            -22 -31 -42 -13 -51 hhcurveto
            -91 -59 51 120 2 hvcurveto
            69 15 405 8 186 vhcurveto
            endchar
          </CharString>
          <CharString index="210">
            67 195 13 rrcurveto
            109 6 -489 -891 rlineto
            -52 915 vlineto
            5 376 rlineto
            -55 hlineto
            -43 -223 -72 -74 -195 -11 rrcurveto
            -126 -5 488 892 rlineto
            52 vlineto
            return
          </CharString>
          <CharString index="211">
            460 1444 rmoveto
            -112 hlineto
            -258 -141 0 -35 127 35 rlineto
            -485 vlineto
            -60 -29 -18 -93 -11 vhcurveto
            -39 487 39 vlineto
            -93 11 -29 18 60 vvcurveto
            return
          </CharString>
          <CharString index="212">
            434 676 rmoveto
            215 157 157 234 233 -158 157 -210 -214 -158 -156 -234 -234 158 -157 210 hvcurveto
            return
          </CharString>
          <CharString index="213">
            rmoveto
            197 126 103 171 -6 hvcurveto
            -65 hlineto
            -61 -8 -102 -40 -142 hhcurveto
            -141 -103 40 61 -8 hvcurveto
            -65 hlineto
            -171 -6 126 -103 197 hhcurveto
            endchar
          </CharString>
          <CharString index="214">
            -49 hhcurveto
            -32 81 callgsubr
            -82 -86 -210 15 hvcurveto
            61 hlineto
            88 1 30 33 49 hhcurveto
            32 26 -12 -27 42 hvcurveto
            30 -19 rlineto
            -36 57 50 -19 return
          </CharString>
          <CharString index="215">
            -107 -34 -144 hhcurveto
            -144 -107 35 51 -8 hvcurveto
            -66 hlineto
            -145 -7 131 -87 201 hhcurveto
            566 -1255 -98 callsubr
          </CharString>
          <CharString index="216">
            1852 rmoveto
            650 -90 0 47 -650 208 rlineto
            -518 vmoveto
            -81 callgsubr
            return
          </CharString>
          <CharString index="217">
            -106 -34 -145 hhcurveto
            -144 -107 35 51 -7 hvcurveto
            -67 hlineto
            -145 -6 130 -87 201 hhcurveto
            endchar
          </CharString>
          <CharString index="218">
            1525 158 1253 rmoveto
            -36 callgsubr
            217 callsubr
            return
          </CharString>
          <CharString index="219">
            -41 -24 -58 -47 -48 15 19 -25 hvcurveto
            -1 -54 rlineto
            -59 38 88 -41 103 hhcurveto
            endchar
          </CharString>
          <CharString index="220">
            -256 132 -72 0 214 -299 228 0 213 299 rlineto
            return
          </CharString>
          <CharString index="221">
            256 -133 72 0 -214 299 -228 0 -213 -299 rlineto
            return
          </CharString>
          <CharString index="222">
            -40 -24 -59 -47 -48 15 19 -25 hvcurveto
            -1 -54 rlineto
            -59 38 88 -41 103 hhcurveto
            return
          </CharString>
          <CharString index="223">
            161 callsubr
            -467 -24 -44 callgsubr
            68 callgsubr
            return
          </CharString>
          <CharString index="224">
            1139 rmoveto
            101 82 72 99 100 -82 72 -101 1 callsubr
            return
          </CharString>
          <CharString index="225">
            86 70 62 84 85 -70 61 -86 -87 -70 -61 -85 -84 70 -62 87 hvcurveto
            return
          </CharString>
          <CharString index="226">
            1109 rmoveto
            277 381 rlineto
            7 -330 vlineto
            -25 -388 rlineto
            return
          </CharString>
          <CharString index="227">
            -26 11 26 -41 hvcurveto
            -30 18 rlineto
            36 -56 -49 19 -61 hhcurveto
            -116 return
          </CharString>
          <CharString index="228">
            -676 rmoveto
            117 hlineto
            875 1444 rlineto
            -117 hlineto
            return
          </CharString>
          <CharString index="229">
            0 317 46 callsubr
            -634 -246 rlineto
            -54 vlineto
            return
          </CharString>
          <CharString index="230">
            -70 -68 55 -49 69 hvcurveto
            372 hmoveto
            69 55 49 68 70 -55 return
          </CharString>
          <CharString index="231">
            1871 rmoveto
            166 vlineto
            -650 -209 rlineto
            -46 vlineto
            return
          </CharString>
          <CharString index="232">
            183 -463 vlineto
            123 66 rlineto
            224 113 97 return
          </CharString>
          <CharString index="233">
            29 -13 -30 44 hvcurveto
            33 -21 rlineto
            -40 61 54 -21 65 hhcurveto
            return
          </CharString>
          <CharString index="234">
            -4 -20 -1 -21 -23 vvcurveto
            -160 107 -162 234 vhcurveto
            return
          </CharString>
          <CharString index="235">
            -20 -2 -21 -23 vvcurveto
            -160 108 -162 233 vhcurveto
            return
          </CharString>
          <CharString index="236">
            rmoveto
            -86 -70 -62 -85 -85 70 -62 86 -16 callgsubr
          </CharString>
          <CharString index="237">
            1408 rmoveto
            69 56 49 68 70 -56 48 -69 hvcurveto
            return
          </CharString>
          <CharString index="238">
            1314 rmoveto
            -121 131 -79 188 188 return
          </CharString>
          <CharString index="239">
            -217 349 -209 0 -217 -349 rlineto
            endchar
          </CharString>
          <CharString index="240">
            -17 -2 -20 -20 vvcurveto
            -139 100 -141 209 vhcurveto
            return
          </CharString>
          <CharString index="241">
            hlineto
            99 2 32 36 52 hhcurveto
            35 28 -13 -30 45 hvcurveto
            return
          </CharString>
          <CharString index="242">
            1557 rmoveto
            209 99 141 139 20 return
          </CharString>
          <CharString index="243">
            46 callsubr
            -633 -246 rlineto
            -54 vlineto
            return
          </CharString>
          <CharString index="244">
            437 151 230 172 369 vvcurveto
            endchar
          </CharString>
          <CharString index="245">
            436 151 230 172 369 vvcurveto
            endchar
          </CharString>
          <CharString index="246">
            -38 callsubr
            -42 0 -296 -225 rlineto
            return
          </CharString>
          <CharString index="247">
            -37 -54 hhcurveto
            -33 -29 13 30 34 callsubr
            return
          </CharString>
          <CharString index="248">
            -59 53 -41 65 hvcurveto
            354 hmoveto
            65 52 41 59 return
          </CharString>
          <CharString index="249">
            -73 -81 -151 4 hvcurveto
            65 hlineto
            58 1 27 24 return
          </CharString>
          <CharString index="250">
            -74 vvcurveto
            -664 vlineto
            -73 -18 -23 -94 -18 vhcurveto
            -57 return
          </CharString>
          <CharString index="251">
            vhcurveto
            58 -600 -58 vlineto
            79 -15 14 -19 -72 vvcurveto
            return
          </CharString>
          <CharString index="252">
            rmoveto
            957 vlineto
            91 23 26 108 22 vhcurveto
            57 return
          </CharString>
          <CharString index="253">
            rmoveto
            198 148 101 197 17 hvcurveto
            -191 71 196 -107 204 hhcurveto
            190 160 70 108 80 hvcurveto
            57 vlineto
            -43 -47 -84 -32 -86 hhcurveto
            -189 -145 131 255 -33 hvcurveto
            600 hlineto
            3 19 2 29 30 vvcurveto
            253 -174 171 -282 -122 -118 -46 -68 -69 vhcurveto
            73 -58 -122 41 -165 hhcurveto
            -271 -166 -114 -141 -87 69 -65 92 99 74 67 89 70 -48 57 -66 18 hvcurveto
            13 38 44 8 46 hhcurveto
            157 93 -83 -195 hvcurveto
            -83 vlineto
            -197 -32 rlineto
            -322 -49 -118 -117 -157 vvcurveto
            -161 126 -86 175 vhcurveto
            672 664 rmoveto
            198 56 111 96 87 36 -103 -177 -32 -1 -25 -1 -20 vhcurveto
            -271 -4 rlineto
            -1 17 -1 17 18 vvcurveto
            -477 -511 rmoveto
            -68 -47 53 103 117 61 73 141 29 hvcurveto
            54 10 rlineto
            -172 vlineto
            -155 -63 -58 -78 vhcurveto
            endchar
          </CharString>
          <CharString index="254">
            rmoveto
            -1069 hlineto
            -527 -1110 -104 -222 -47 -36 -95 -19 rlinecurve
            -57 415 57 vlineto
            -127 21 -23 46 89 205 rrcurveto
            123 278 413 0 5 -419 rlineto
            -87 -22 -26 -100 -18 vhcurveto
            -57 1112 vlineto
            11 452 rlineto
            -54 hlineto
            -63 -283 -82 -80 -260 -16 rrcurveto
            -150 -8 -6 641 136 -5 127 -7 35 -57 30 -154 rlinecurve
            51 hlineto
            -4 510 rlineto
            -51 hlineto
            -28 -153 -34 -58 -127 -7 rrcurveto
            -136 -4 -6 608 129 -7 259 -15 78 -80 60 -251 rlinecurve
            55 hlineto
            -1037 350 rmoveto
            63 hlineto
            8 -689 rlineto
            -376 hlineto
            endchar
          </CharString>
          <CharString index="255">
            rmoveto
            232 -2 -196 156 -435 hhcurveto
            -706 -57 hlineto
            108 -21 23 -26 -92 vvcurveto
            -1052 vlineto
            -90 -23 -26 -108 -23 vhcurveto
            -57 676 57 vlineto
            -100 20 -21 26 85 vvcurveto
            461 121 vlineto
            290 -649 rlineto
            474 55 hlineto
            -55 21 -37 40 -86 180 -197 431 rcurveline
            168 48 106 117 164 vvcurveto
            -420 -22 rmoveto
            -194 -123 -114 -173 -9 vhcurveto
            -68 -3 0 665 60 -3 rlineto
            204 -10 100 -139 -193 vvcurveto
            return
          </CharString>
          <CharString index="256">
            1530 607 188 rmoveto
            508 81 vlineto
            357 -696 rlineto
            492 55 hlineto
            -60 25 -36 39 -119 226 rrcurveto
            -342 669 141 143 157 152 77 49 124 29 rlinecurve
            57 -448 -57 vlineto
            121 -20 9 -36 -114 -136 -358 -428 rcurveline
            -82 489 hlineto
            51 callsubr
            -676 -57 vlineto
            -71 callsubr
            -100 callsubr
            -21 callgsubr
            return
          </CharString>
          <CharString index="257">
            rmoveto
            320 -178 194 -231 -163 -118 -83 -115 -43 vhcurveto
            193 vlineto
            -503 -63 0 -54 48 -15 rlineto
            55 -19 9 -17 -71 vvcurveto
            -1073 94 callsubr
            -20 callgsubr
            386 vlineto
            -74 38 109 -52 120 82 callgsubr
            -78 -141 -120 -59 -50 33 40 -18 vhcurveto
            615 vlineto
            51 23 46 32 62 hhcurveto
            117 77 -146 -241 hvcurveto
            endchar
          </CharString>
          <CharString index="258">
            rmoveto
            -575 -57 hlineto
            104 -20 28 -42 -1 -100 rrcurveto
            -14 -955 -2 -156 -20 -38 -110 -19 rlinecurve
            -57 382 57 vlineto
            -118 20 -21 38 -2 158 rrcurveto
            -19 936 718 -1209 352 0 18 1174 4 156 19 38 109 19 rlinecurve
            57 -381 -57 vlineto
            118 -20 19 -38 4 -158 20 -794 rcurveline
            return
          </CharString>
          <CharString index="259">
            rmoveto
            125 73 69 128 -3 hvcurveto
            -67 hlineto
            -48 -1 -28 -21 -54 hhcurveto
            -32 -33 7 11 -42 hvcurveto
            -41 12 rlineto
            13 -53 -50 12 -54 hhcurveto
            -125 -73 -70 -128 3 hvcurveto
            67 hlineto
            49 1 27 21 56 hhcurveto
            32 33 -7 -12 42 hvcurveto
            40 -10 rlineto
            -15 53 50 -11 54 hhcurveto
            -914 -841 -103 callsubr
            -102 callsubr
          </CharString>
          <CharString index="260">
            469 55 hlineto
            -55 21 -42 38 -105 210 rrcurveto
            -218 420 24 21 142 116 77 42 114 26 rlinecurve
            58 -445 -58 vlineto
            123 -23 4 -59 -94 -91 rrcurveto
            -238 -241 -62 -2 0 974 -35 callgsubr
            -43 callsubr
            -104 callsubr
            302 vlineto
            64 -1 rlineto
            return
          </CharString>
          <CharString index="261">
            57 vlineto
            -45 -48 -89 -30 -88 hhcurveto
            -196 -161 153 271 224 116 138 170 41 38 -9 -16 33 hvcurveto
            -86 -4 -68 -71 -90 vvcurveto
            -92 74 -72 94 92 77 71 101 159 -153 120 -254 -334 -245 -212 -315 return
          </CharString>
          <CharString index="262">
            rmoveto
            -114 131 -73 188 188 131 72 115 112 -131 75 -188 -188 -131 -75 -112 vhcurveto
            232 hmoveto
            77 34 56 53 53 34 -55 -78 -80 -34 -52 -53 -53 -34 53 79 vhcurveto
            endchar
          </CharString>
          <CharString index="263">
            vvcurveto
            2 120 -99 91 -161 -1 rrcurveto
            -168 -105 -85 -138 -37 hvcurveto
            35 -16 rlineto
            61 25 51 44 74 hhcurveto
            81 48 -47 -73 -85 -51 -75 -128 -117 hvcurveto
            -124 -106 rlineto
            -130 vlineto
            endchar
          </CharString>
          <CharString index="264">
            -319 249 -201 341 hvcurveto
            6 75 rmoveto
            -115 -68 164 292 279 57 163 117 116 67 -164 -291 -279 -56 -164 -118 hvcurveto
            return
          </CharString>
          <CharString index="265">
            -918 -716 31 callgsubr
            1078 -741 rmoveto
            42 callsubr
            84 callsubr
            -157 -157 -234 -233 157 -157 210 hvcurveto
            return
          </CharString>
          <CharString index="266">
            71 vvcurveto
            1285 vlineto
            -507 -58 0 -54 48 -44 callsubr
            -367 vlineto
            76 -40 -109 50 -123 hhcurveto
            -247 -211 -183 -351 hvcurveto
            return
          </CharString>
          <CharString index="267">
            1136 rmoveto
            234 108 162 160 23 -2 22 -4 19 hvcurveto
            -65 -2 hlineto
            -103 -117 -69 -154 -152 -118 70 102 vhcurveto
            2 return
          </CharString>
          <CharString index="268">
            rmoveto
            454 -355 244 -552 vhcurveto
            -640 -34 callsubr
            -100 callsubr
            652 vlineto
            496 399 274 472 hvcurveto
            return
          </CharString>
          <CharString index="269">
            -3 hvcurveto
            -66 hlineto
            -48 -79 callgsubr
            12 -42 hvcurveto
            -41 10 rlineto
            14 return
          </CharString>
          <CharString index="270">
            256 81 129 117 59 50 -33 -41 18 vhcurveto
            -615 vlineto
            -49 -23 -48 -34 -64 hhcurveto
            -110 -80 134 253 hvcurveto
            return
          </CharString>
          <CharString index="271">
            rmoveto
            174 158 79 161 109 -86 86 -139 17 hvcurveto
            124 16 80 58 89 vvcurveto
            98 -100 67 -154 -169 return
          </CharString>
          <CharString index="272">
            1514 rmoveto
            -133 -95 -71 -84 -39 hvcurveto
            -48 vlineto
            25 27 48 18 54 hhcurveto
            68 46 -31 -55 -55 -38 -49 -90 -49 hvcurveto
            return
          </CharString>
          <CharString index="273">
            -58 hlineto
            93 -17 19 -23 -74 vvcurveto
            -664 vlineto
            -74 -19 -23 -93 -17 vhcurveto
            -57 632 57 vlineto
            -106 19 -19 23 80 vvcurveto
            return
          </CharString>
          <CharString index="274">
            1136 rmoveto
            233 108 162 160 23 -2 22 -3 19 hvcurveto
            -66 -2 hlineto
            -103 -117 -69 -153 return
          </CharString>
          <CharString index="275">
            -234 -107 -163 -160 -23 1 -22 4 -19 hvcurveto
            66 1 hlineto
            105 116 67 154 -17 callgsubr
            return
          </CharString>
          <CharString index="276">
            -27 -45 -47 -35 -43 -80 -42 hvcurveto
            59 hlineto
            187 53 75 63 80 vvcurveto
            84 -79 58 -112 vhcurveto
            return
          </CharString>
          <CharString index="277">
            rmoveto
            -348 -7 hlineto
            366 -24 callgsubr
            -314 -7 hlineto
            240 -293 rlineto
            74 hlineto
            return
          </CharString>
          <CharString index="278">
            1109 rmoveto
            239 381 rlineto
            7 -315 vlineto
            3 -388 rlineto
            -229 33 rmoveto
            87 return
          </CharString>
          <CharString index="279">
            20 77 44 79 vvcurveto
            77 -83 50 -112 vhcurveto
            -603 -462 rmoveto
            -81 callgsubr
            return
          </CharString>
          <CharString index="280">
            11 -54 hhcurveto
            -124 -73 -68 -129 3 hvcurveto
            66 hlineto
            49 105 callgsubr
            -15 52 return
          </CharString>
          <CharString index="281">
            rmoveto
            201 29 181 140 206 -26 callgsubr
            87 callgsubr
            endchar
          </CharString>
          <CharString index="282">
            1540 rmoveto
            117 83 84 213 -14 hvcurveto
            -65 hlineto
            -85 -2 -29 -32 -47 hhcurveto
            return
          </CharString>
          <CharString index="283">
            1425 rmoveto
            121 73 80 151 -4 hvcurveto
            -65 hlineto
            -57 -1 -27 -24 -54 hhcurveto
            return
          </CharString>
          <CharString index="284">
            439 rmoveto
            279 -254 153 -383 vhcurveto
            -168 362 hlineto
            100 24 35 return
          </CharString>
          <CharString index="285">
            4 36 37 45 vvcurveto
            50 -42 37 -50 -56 -39 -39 -51 -93 106 -81 165 vhcurveto
            endchar
          </CharString>
          <CharString index="286">
            74 58 53 75 74 -58 54 -74 -73 -59 -54 -74 -75 58 -53 74 hvcurveto
            317 return
          </CharString>
          <CharString index="287">
            51 rmoveto
            -69 -40 -96 callgsubr
            40 -84 -260 -259 -36 -75 -69 hvcurveto
            return
          </CharString>
          <CharString index="288">
            47 22 52 34 69 hhcurveto
            89 53 -29 callgsubr
            203 callsubr
            endchar
          </CharString>
          <CharString index="289">
            1961 rmoveto
            -90 -69 -38 -53 -40 hvcurveto
            -35 vlineto
            15 24 46 12 46 hhcurveto
            return
          </CharString>
          <CharString index="290">
            1514 rmoveto
            -132 -95 -71 -84 -40 hvcurveto
            1 -48 rlineto
            25 26 49 18 return
          </CharString>
          <CharString index="291">
            1476 rmoveto
            634 -105 0 54 -634 245 rlineto
            -1 -520 rmoveto
            return
          </CharString>
          <CharString index="292">
            32 47 hhcurveto
            31 25 -13 -25 42 hvcurveto
            29 -18 rlineto
            -35 56 49 -19 60 hhcurveto
            return
          </CharString>
          <CharString index="293">
            -40 -24 -59 -47 -47 15 19 -25 hvcurveto
            -1 -54 rlineto
            -59 37 88 -41 104 hhcurveto
            return
          </CharString>
          <CharString index="294">
            -70 -39 -96 callgsubr
            39 -84 -260 -259 -36 -75 -68 hvcurveto
            endchar
          </CharString>
          <CharString index="295">
            hhcurveto
            -85 callgsubr
            hvcurveto
            468 13 rmoveto
            402 91 256 222 return
          </CharString>
          <CharString index="296">
            rmoveto
            102 82 72 99 100 -82 72 -102 -101 -83 -72 -100 -99 83 -72 101 hvcurveto
            return
          </CharString>
          <CharString index="297">
            rmoveto
            340 249 216 311 153 -57 126 -97 89 hvcurveto
            98 95 -46 49 -105 -102 rlineto
            70 -100 -131 38 -148 hhcurveto
            -339 -249 -215 -311 -155 58 -127 99 -89 hvcurveto
            -92 -90 46 -49 100 97 rlineto
            -68 99 129 -38 146 hhcurveto
            -182 530 rmoveto
            279 59 164 120 86 60 -86 -157 27 vhcurveto
            -346 -337 rlineto
            -4 42 -2 46 49 vvcurveto
            188 -456 rmoveto
            -85 -59 83 153 -27 hvcurveto
            345 337 rlineto
            4 -41 2 -43 -47 vvcurveto
            -278 -60 -164 -120 vhcurveto
            endchar
          </CharString>
          <CharString index="298">
            -223 83 -185 141 -131 vhcurveto
            -131 -137 50 -50 135 142 rlineto
            -102 135 177 -57 201 hhcurveto
            470 313 327 423 223 -83 185 -141 130 hvcurveto
            130 137 -50 50 -134 -142 rlineto
            102 -135 -177 57 -200 188 callsubr
            135 100 -119 -202 52 vhcurveto
            -579 -609 rlineto
            -14 81 -7 91 100 vvcurveto
            638 -19 rmoveto
            -402 -92 -257 -221 -136 -100 119 202 -51 vhcurveto
            579 610 rlineto
            14 -81 7 -91 -100 vvcurveto
            endchar
          </CharString>
          <CharString index="299">
            rmoveto
            168 100 97 176 89 hvcurveto
            -182 41 83 -86 147 hhcurveto
            111 90 55 82 55 hvcurveto
            53 vlineto
            -11 -13 -22 -9 -25 hhcurveto
            -62 -54 44 218 -57 hvcurveto
            -21 79 229 511 rlineto
            -344 hlineto
            -15 -75 -20 -85 -22 -87 rrcurveto
            168 -72 -116 99 -197 hhcurveto
            -277 -189 -224 -316 -331 179 -176 214 hvcurveto
            12 551 rmoveto
            264 50 144 88 81 34 -80 -216 32 vhcurveto
            42 -291 rlineto
            -144 -52 -51 -68 -71 hhcurveto
            -96 -57 131 260 hvcurveto
            endchar
          </CharString>
          <CharString index="300">
            rmoveto
            -280 158 -168 213 192 114 137 175 55 vhcurveto
            -180 35 110 -132 205 hhcurveto
            262 194 264 338 278 -106 166 -152 -149 -79 -156 -157 66 hvcurveto
            165 -24 113 -137 -172 vvcurveto
            -135 -69 -79 -105 -128 -78 114 269 vhcurveto
            230 -329 -233 vlineto
            -287 -50 -87 -92 -92 -50 105 200 212 58 199 121 99 vhcurveto
            -36 41 rlineto
            -346 -59 -200 -237 -304 vvcurveto
            endchar
          </CharString>
          <CharString index="301">
            rmoveto
            273 184 115 179 82 hvcurveto
            -1 57 -66 -67 -128 -46 -138 -2 rlinecurve
            -142 -2 -91 44 81 vvcurveto
            80 80 43 160 vhcurveto
            66 hlineto
            -57 226 rlineto
            -43 hlineto
            -162 -75 49 80 75 74 55 155 68 60 -9 -17 48 hvcurveto
            -53 -16 -43 -48 -67 vvcurveto
            -73 51 -61 92 75 61 62 79 127 -130 104 -318 -320 -178 -119 -173 -158 136 -88 217 -10 vhcurveto
            -249 -14 -125 -87 -136 vvcurveto
            -165 178 -98 259 vhcurveto
            endchar
          </CharString>
          <CharString index="302">
            335 676 rmoveto
            174 158 80 161 109 -86 85 -139 18 hvcurveto
            124 16 80 58 88 vvcurveto
            98 -100 68 -154 -169 -110 -87 -129 -37 vhcurveto
            33 -19 rlineto
            65 30 60 36 75 hhcurveto
            79 41 -39 -58 -70 -68 -48 -141 -13 hvcurveto
            -44 vlineto
            2 11 19 1 15 hhcurveto
            103 76 -65 -100 -90 -63 -58 -88 -34 -31 10 16 -25 hvcurveto
            47 4 36 37 46 vvcurveto
            50 -42 37 -50 -56 -39 -40 -50 -93 106 -82 165 vhcurveto
            return
          </CharString>
          <CharString index="303">
            217 -116 157 -165 73 hvcurveto
            -15 57 63 -8 64 hhcurveto
            155 110 65 114 1 hvcurveto
            107 -88 104 -148 46 vhcurveto
            -57 hlineto
            24 -26 19 -56 -60 vvcurveto
            -123 -1 -96 -97 -174 -77 -71 21 -99 hhcurveto
            -341 -244 -221 -307 -320 246 -200 344 hvcurveto
            6 75 rmoveto
            -117 -66 166 290 279 55 163 119 118 65 -165 -291 -279 -54 -163 -120 hvcurveto
            return
          </CharString>
          <CharString index="304">
            rmoveto
            112 92 61 84 31 hvcurveto
            56 vlineto
            -15 -12 -22 -10 -28 hhcurveto
            -76 -66 105 121 19 3 22 5 17 hvcurveto
            317 20 226 211 296 vvcurveto
            -105 callsubr
            -310 235 -198 327 -11 vhcurveto
            -110 -73 -70 -92 -100 vvcurveto
            -114 96 -80 124 vhcurveto
            -6 533 rmoveto
            -115 -68 164 292 279 57 163 117 116 67 -164 -291 -279 -56 -164 -118 hvcurveto
            endchar
          </CharString>
          <CharString index="305">
            rmoveto
            -102 88 -77 108 171 107 121 256 132 vhcurveto
            428 833 76 150 33 30 105 21 rlinecurve
            57 -398 -57 vlineto
            142 -21 16 -28 -70 -152 rrcurveto
            -241 -510 -271 548 -59 119 4 28 130 16 rlinecurve
            57 -719 -57 vlineto
            93 -20 33 -31 64 -119 rrcurveto
            510 -948 -46 -83 -44 -59 -49 -36 rlinecurve
            7 19 4 21 24 vvcurveto
            97 -78 82 -99 -101 -76 -82 -97 vhcurveto
            endchar
          </CharString>
          <CharString index="306">
            rmoveto
            326 -176 187 -230 -159 -121 -73 -122 -47 vhcurveto
            3 674 -507 -62 0 -54 48 -16 rlineto
            56 -20 8 -15 -71 vvcurveto
            -1268 240 vlineto
            123 132 rlineto
            -88 42 114 -64 141 hhcurveto
            251 214 183 351 hvcurveto
            -405 -34 rmoveto
            -255 -81 -129 -117 -60 -49 35 40 -18 vhcurveto
            615 vlineto
            49 23 48 32 63 hhcurveto
            111 80 -133 -254 hvcurveto
            return
          </CharString>
          <CharString index="307">
            408 hlineto
            25 -11 735 0 vhcurveto
            57 21 51 35 71 hhcurveto
            101 54 -67 -174 -280 -5 -323 -12 -468 hvcurveto
            408 hlineto
            -5 1094 rlineto
            279 -1 -135 114 -214 hhcurveto
            -186 -127 -96 -127 -33 hvcurveto
            136 -15 -77 84 -147 hhcurveto
            -112 -96 -50 -57 -52 hvcurveto
            -54 vlineto
            7 10 18 4 20 hhcurveto
            66 29 -41 -114 -2 hvcurveto
            -77 -15 -412 -12 -230 vhcurveto
            endchar
          </CharString>
          <CharString index="308">
            rmoveto
            310 vlineto
            72 -1 236 -473 rlineto
            461 55 hlineto
            -58 21 -36 46 -99 204 rrcurveto
            -211 418 24 25 145 134 65 27 103 19 rlinecurve
            58 -409 -58 vlineto
            114 -21 9 -43 -95 -94 rrcurveto
            -250 -249 -71 -1 rlineto
            302 vlineto
            89 callgsubr
            -37 callsubr
            -104 callsubr
            endchar
          </CharString>
          <CharString index="309">
            rmoveto
            101 77 38 61 20 hvcurveto
            -63 12 76 -33 76 hhcurveto
            58 53 14 49 callgsubr
            137 -104 62 -185 -181 -101 -68 -79 -52 44 -38 58 57 45 42 53 35 -20 29 -30 16 vhcurveto
            3 15 16 2 17 hhcurveto
            87 45 -38 -91 hvcurveto
            -49 vlineto
            -108 -21 rlineto
            -186 -34 -67 -59 -79 vvcurveto
            -77 90 callgsubr
            5 rlineto
            -155 vlineto
            -22 -9 -22 -13 -31 hhcurveto
            -36 -27 25 49 hvcurveto
            endchar
          </CharString>
          <CharString index="310">
            580 57 vlineto
            -80 16 -13 19 72 vvcurveto
            555 vlineto
            26 -2 22 -5 22 vhcurveto
            48 25 53 30 69 hhcurveto
            91 54 -29 callgsubr
            599 57 vlineto
            -94 18 -18 22 74 vvcurveto
            533 vlineto
            214 -131 109 -204 -179 -131 -84 -117 -46 vhcurveto
            130 -34 -122 71 -162 hhcurveto
            -180 -127 -84 -115 -45 hvcurveto
            return
          </CharString>
          <CharString index="311">
            1322 714 59 callgsubr
            -64 -2 hlineto
            -93 -104 -59 -136 -135 -106 61 91 vhcurveto
            2 -63 vlineto
            -3 133 callsubr
            return
          </CharString>
          <CharString index="312">
            rmoveto
            741 vlineto
            232 -17 0 105 -232 -18 rlineto
            235 vlineto
            143 57 56 91 vhcurveto
            4 5 0 4 hhcurveto
            -45 -19 -32 -45 -54 vvcurveto
            -76 59 -55 73 72 59 56 75 118 -99 92 -214 -248 -178 -142 -279 vhcurveto
            -91 vlineto
            -114 -49 rlineto
            -52 112 -733 94 callsubr
            -20 callgsubr
            endchar
          </CharString>
          <CharString index="313">
            rmoveto
            198 -173 106 -294 vhcurveto
            -178 209 hlineto
            80 19 22 106 19 vhcurveto
            58 -632 -58 vlineto
            94 -17 18 -23 -37 callsubr
            695 vlineto
            288 169 117 198 hvcurveto
            -589 236 rmoveto
            130 -7 60 -91 -144 vvcurveto
            -143 -70 -89 -122 -8 vhcurveto
            -54 -3 rlineto
            486 vlineto
            endchar
          </CharString>
          <CharString index="314">
            691 vlineto
            365 344 134 288 hvcurveto
            -485 656 rmoveto
            -190 -96 -88 -164 -3 vhcurveto
            -100 -1 0 583 54 -2 rlineto
            209 -8 97 -118 -173 vvcurveto
            40 -671 rmoveto
            -206 -121 -126 -225 -8 vhcurveto
            -54 -2 0 665 100 -2 rlineto
            196 -6 104 -135 -180 vvcurveto
            return
          </CharString>
          <CharString index="315">
            1320 -746 rmoveto
            12 452 rlineto
            -55 hlineto
            -68 -289 -99 -74 -309 -39 callgsubr
            -1153 vlineto
            -13 -418 rlineto
            53 hlineto
            60 252 90 78 306 15 rrcurveto
            189 8 -721 -1324 rlineto
            -55 vlineto
            -603 722 -44 callgsubr
            68 callgsubr
            endchar
          </CharString>
          <CharString index="316">
            rmoveto
            335 250 212 317 322 -242 197 -341 -336 -251 -211 -317 -322 244 -198 341 hvcurveto
            5 75 rmoveto
            -115 -61 167 290 280 52 161 116 114 61 -167 -290 -280 -52 -161 -115 hvcurveto
            endchar
          </CharString>
          <CharString index="317">
            403 -1166 305 0 399 1136 68 197 34 36 102 20 rlinecurve
            57 -410 -57 vlineto
            134 -22 21 -41 -57 -186 rrcurveto
            -266 -851 -277 864 -55 173 25 43 126 20 rlinecurve
            57 -745 -57 vlineto
            101 -20 36 -39 56 -164 rrcurveto
            return
          </CharString>
          <CharString index="318">
            -432 313 -294 438 -16 vhcurveto
            -107 -58 -73 -94 -105 vvcurveto
            -118 95 -81 129 118 96 65 95 30 vhcurveto
            -1 54 rlineto
            -17 -14 -27 -12 -34 hhcurveto
            -75 -69 81 108 32 6 29 9 21 hvcurveto
            447 20 293 319 410 vvcurveto
            -102 callsubr
          </CharString>
          <CharString index="319">
            294 -782 240 0 281 740 63 165 28 28 79 17 rlinecurve
            58 -341 -58 vlineto
            110 -15 10 -34 -47 -154 rrcurveto
            -141 -446 -138 445 -45 155 9 35 115 14 rlinecurve
            58 -667 -58 vlineto
            77 -17 27 -29 46 -122 rrcurveto
            return
          </CharString>
          <CharString index="320">
            1225 691 1425 rmoveto
            122 72 80 151 -4 hvcurveto
            -64 hlineto
            -57 -1 -28 -24 -53 hhcurveto
            -31 -33 8 13 -41 hvcurveto
            -40 13 rlineto
            17 -51 -49 12 -52 hhcurveto
            -121 -73 -80 -151 4 hvcurveto
            64 hlineto
            57 1 28 25 53 hhcurveto
            91 callgsubr
            return
          </CharString>
          <CharString index="321">
            hlineto
            -71 -171 -194 -62 -331 -3 rrcurveto
            86 vlineto
            370 36 244 224 306 vvcurveto
            313 -271 271 -492 -487 -276 -264 -328 1 vhcurveto
            -308 250 -225 364 -25 vhcurveto
            -86 vlineto
            -329 3 -196 60 return
          </CharString>
          <CharString index="322">
            611 hlineto
            3 19 3 29 29 vvcurveto
            256 -177 174 -290 -328 -222 -216 -311 vhcurveto
            392 139 rmoveto
            200 57 113 101 89 40 -104 -177 -35 -1 -25 -1 -21 vhcurveto
            -283 -4 rlineto
            -1 18 -1 17 18 vvcurveto
            return
          </CharString>
          <CharString index="323">
            604 285 rmoveto
            -7 -357 rlineto
            54 hlineto
            51 207 65 67 194 13 rrcurveto
            109 6 -488 -891 rlineto
            -52 914 vlineto
            5 376 rlineto
            -54 hlineto
            -44 -223 -72 -74 -194 -11 rrcurveto
            -127 -5 488 892 rlineto
            52 vlineto
            endchar
          </CharString>
          <CharString index="324">
            371 201 227 342 6 vhcurveto
            11 630 3 155 18 38 105 19 rlinecurve
            57 -372 -57 vlineto
            118 -22 20 -36 3 -157 12 -605 rcurveline
            -282 5 -144 -161 -212 12 callgsubr
            -19 22 -26 -89 vvcurveto
            return
          </CharString>
          <CharString index="325">
            rmoveto
            199 143 116 165 170 -141 106 -199 -200 -144 -116 -165 -169 142 -107 200 hvcurveto
            3 50 rmoveto
            -59 -32 82 149 144 27 82 59 58 33 -82 -150 -143 -27 -82 -59 hvcurveto
            endchar
          </CharString>
          <CharString index="326">
            1520 1452 422 rmoveto
            232 -202 124 -302 11 vhcurveto
            233 10 213 100 203 vvcurveto
            230 -247 112 -404 vhcurveto
            -691 -19 callsubr
            -100 callsubr
            207 callsubr
            return
          </CharString>
          <CharString index="327">
            131 78 123 120 -131 81 -188 -188 -131 -81 -121 vhcurveto
            232 hmoveto
            85 79 callgsubr
            endchar
          </CharString>
          <CharString index="328">
            130 78 123 120 -130 81 -188 -189 -130 -81 -121 vhcurveto
            232 hmoveto
            85 79 callgsubr
            return
          </CharString>
          <CharString index="329">
            -2 -29 -33 -50 hhcurveto
            -31 -27 12 27 -42 hvcurveto
            -29 19 rlineto
            36 -58 -50 19 -61 hhcurveto
            -117 -83 -86 -210 15 hvcurveto
            61 hlineto
            88 2 29 33 49 hhcurveto
            32 27 -12 -27 41 hvcurveto
            31 -19 rlineto
            -36 57 49 -19 61 hhcurveto
            endchar
          </CharString>
          <CharString index="330">
            -477 rmoveto
            110 99 50 77 41 hvcurveto
            55 vlineto
            -16 -18 -31 -11 -35 hhcurveto
            -54 -45 35 74 85 54 83 123 86 hvcurveto
            -67 hlineto
            -281 -108 -109 -119 -114 vvcurveto
            -114 92 -63 121 vhcurveto
            endchar
          </CharString>
          <CharString index="331">
            477 vlineto
            142 -5 128 -6 36 -57 30 -154 rlinecurve
            51 510 -51 hlineto
            -31 -154 -34 -57 -129 -7 rrcurveto
            -142 -5 0 626 132 -7 265 -16 85 -78 56 -252 rlinecurve
            54 hlineto
            endchar
          </CharString>
          <CharString index="332">
            -55 58 -79 -75 -57 -59 -73 -67 52 -56 65 -3 hvcurveto
            -34 -49 -67 -22 -78 hhcurveto
            -77 -68 22 34 -48 hvcurveto
            64 3 53 56 67 vvcurveto
            73 -57 59 -76 -78 -55 -58 -79 -137 139 -107 203 vhcurveto
            return
          </CharString>
          <CharString index="333">
            121 -18 16 -40 -79 -167 rrcurveto
            -207 -428 -229 444 -78 153 16 40 116 16 rlinecurve
            57 -719 -57 vlineto
            91 -20 34 -34 79 -143 rrcurveto
            return
          </CharString>
          <CharString index="334">
            462 -199 hlineto
            -365 -493 rlineto
            -114 343 234 callsubr
          </CharString>
          <CharString index="335">
            144 56 50 -14 -25 41 vhcurveto
            -82 -4 -66 -68 -87 vvcurveto
            -90 72 -72 92 91 76 71 93 177 -187 111 -258 -289 -238 -137 -272 return
          </CharString>
          <CharString index="336">
            325 rmoveto
            151 122 124 151 150 -122 123 -151 -151 -123 -123 -150 -151 123 -124 151 hvcurveto
            endchar
          </CharString>
          <CharString index="337">
            -52 -51 12 -54 hhcurveto
            -124 -73 -70 -128 3 hvcurveto
            66 hlineto
            49 1 28 21 55 hhcurveto
            32 33 -7 -12 42 hvcurveto
            41 -10 rlineto
            -15 52 51 -11 54 hhcurveto
            return
          </CharString>
          <CharString index="338">
            -55 hlineto
            13 -358 rlineto
            -53 100 172 -38 180 hhcurveto
            return
          </CharString>
          <CharString index="339">
            hvcurveto
            51 476 -51 hlineto
            -151 -30 -54 -49 -182 hhcurveto
            return
          </CharString>
          <CharString index="340">
            rmoveto
            94 76 65 89 90 -76 65 -94 -100 callgsubr
          </CharString>
          <CharString index="341">
            vlineto
            -1 145 rmoveto
            -233 hlineto
            234 347 rlineto
            endchar
          </CharString>
          <CharString index="342">
            hlineto
            215 61 86 74 97 vvcurveto
            100 -90 67 -128 vhcurveto
            return
          </CharString>
        <CharString name=".notdef">
          2048 136 -494 rmoveto
          138 2444 -138 hlineto
          -58 callgsubr
          409 -2444 rmoveto
          138 2444 -138 hlineto
          -58 callgsubr
          -58 callgsubr
          endchar
        </CharString>
        <CharString name=".null">
          0 endchar
        </CharString>
        <CharString name="A">
          1490 1307 280 -98 callsubr
        </CharString>
        <CharString name="AE">
          1927 1824 1444 147 callsubr
        </CharString>
        <CharString name="AEacute">
          1927 1129 -48 callsubr
          48 callsubr
          766 -82 147 callsubr
        </CharString>
        <CharString name="AEmacron">
          1927 891 -50 callsubr
          933 -298 147 callsubr
        </CharString>
        <CharString name="Aacute">
          1490 674 -75 callsubr
          705 -1246 -98 callsubr
        </CharString>
        <CharString name="Abreve">
          1490 741 135 callsubr
          -102 callgsubr
          -59 -137 -135 -105 61 91 vhcurveto
          2 -64 vlineto
          -2 133 callsubr
          566 -1277 -98 callsubr
        </CharString>
        <CharString name="Abreveacute">
          1490 1066 89 callsubr
          325 -247 -27 callsubr
          108 callsubr
        </CharString>
        <CharString name="Abrevecyrillic">
          1490 741 -43 callgsubr
          50 callgsubr
          -78 -67 102 callgsubr
          -79 -55 -58 -79 -137 139 -107 204 vhcurveto
          566 -1274 -98 callsubr
        </CharString>
        <CharString name="Abrevedotbelow">
          1490 741 135 callsubr
          -102 callgsubr
          -59 -137 -135 -105 61 91 vhcurveto
          2 -64 vlineto
          -2 133 callsubr
          566 -1277 rmoveto
          -16 callsubr
          62 callsubr
          -111 -697 -85 callsubr
        </CharString>
        <CharString name="Abrevegrave">
          1490 416 71 callsubr
          325 -502 -27 callsubr
          108 callsubr
        </CharString>
        <CharString name="Abrevehookabove">
          1490 730 2019 rmoveto
          -94 -73 -39 -51 -42 hvcurveto
          -36 vlineto
          14 25 49 13 47 hhcurveto
          75 25 callgsubr
          -117 vhcurveto
          11 -484 -27 callsubr
          108 callsubr
        </CharString>
        <CharString name="Abrevetilde">
          1490 871 1818 rmoveto
          125 73 70 127 162 callsubr
          -53 -50 36 callgsubr
          50 -12 54 hhcurveto
          -130 -283 -27 callsubr
          108 callsubr
        </CharString>
        <CharString name="Acaron">
          1490 1015 -25 callsubr
          -54 callgsubr
          222 -1564 -98 callsubr
        </CharString>
        <CharString name="Acircumflex">
          1490 500 39 callsubr
          -98 callgsubr
          876 -1245 -98 callsubr
        </CharString>
        <CharString name="Acircumflexacute">
          1490 1066 -86 callgsubr
          -263 vmoveto
          -81 callgsubr
          -23 callsubr
          892 -1267 -98 callsubr
        </CharString>
        <CharString name="Acircumflexdotbelow">
          1490 500 39 callsubr
          -98 callgsubr
          876 -1245 rmoveto
          -16 callsubr
          62 callsubr
          -111 -697 -85 callsubr
        </CharString>
        <CharString name="Acircumflexgrave">
          1490 416 109 callsubr
          -23 callsubr
          892 -1267 -98 callsubr
        </CharString>
        <CharString name="Acircumflexhookabove">
          1490 1019 182 callsubr
          71 38 -27 -35 -38 -36 -29 -76 -14 hvcurveto
          47 -28 rlineto
          157 172 callsubr
          -23 callsubr
          892 -1267 -98 callsubr
        </CharString>
        <CharString name="Acircumflextilde">
          1490 871 1798 rmoveto
          125 73 69 128 162 callsubr
          -53 -50 173 callsubr
          50 -11 54 hhcurveto
          -455 -299 rmoveto
          -81 callgsubr
          -23 callsubr
          892 -1267 -98 callsubr
        </CharString>
        <CharString name="Acyrillic">
          1490 1307 280 -98 callsubr
        </CharString>
        <CharString name="Adblgrave">
          1490 592 1825 rmoveto
          -349 -7 hlineto
          367 -24 callgsubr
          -33 callgsubr
          321 -1245 -98 callsubr
        </CharString>
        <CharString name="Adieresis">
          1490 564 -51 callsubr
          -64 -57 -78 -78 64 -57 79 hvcurveto
          354 hmoveto
          -52 callsubr
          389 -1261 -98 callsubr
        </CharString>
        <CharString name="Adieresismacron">
          1490 415 -70 callgsubr
          38 callgsubr
          17 callgsubr
          402 -1271 -98 callsubr
        </CharString>
        <CharString name="Adotaccent">
          1490 741 -41 callsubr
          566 -1249 -98 callsubr
        </CharString>
        <CharString name="Adotbelow">
          1490 1307 280 rmoveto
          -16 callsubr
          62 callsubr
          -111 -697 -85 callsubr
        </CharString>
        <CharString name="Adotmacron">
          1490 415 1817 44 callsubr
          326 -407 rmoveto
          66 callgsubr
          566 -1262 -98 callsubr
        </CharString>
        <CharString name="Agrave">
          1490 842 -5 callsubr
          895 -1538 -98 callsubr
        </CharString>
        <CharString name="Ahookabove">
          1490 784 7 callgsubr
          523 -1592 -98 callsubr
        </CharString>
        <CharString name="Ainvertedbreve">
          1490 740 32 callgsubr
          105 60 135 136 105 -62 -90 vhcurveto
          -2 64 vlineto
          3 17 1 19 20 vvcurveto
          139 -99 142 -210 vhcurveto
          567 -1614 -98 callsubr
        </CharString>
        <CharString name="Alphagreek">
          1490 1307 280 -98 callsubr
        </CharString>
        <CharString name="Alphatonosgreek">
          1490 1307 280 rmoveto
          -16 callsubr
          746 57 vlineto
          -101 20 -35 39 -58 164 rrcurveto
          -1122 776 -52 callgsubr
          276 -492 rmoveto
          188 593 192 -593 rlineto
          endchar
        </CharString>
        <CharString name="Amacron">
          1490 435 1581 rmoveto
          612 161 -612 hlineto
          872 -1462 -98 callsubr
        </CharString>
        <CharString name="Aogonek">
          1490 1131 -59 callgsubr
          -14 -26 108 callgsubr
          327 57 hlineto
          -101 20 -35 39 -58 164 rrcurveto
          -16 callsubr
          346 84 callgsubr
          -748 1043 rmoveto
          188 593 192 -593 rlineto
          endchar
        </CharString>
        <CharString name="Aring">
          1490 453 1723 rmoveto
          -110 119 -72 169 169 118 70 112 109 -117 74 -170 -169 -119 -74 -109 vhcurveto
          209 hmoveto
          76 80 callgsubr
          645 -1443 -98 callsubr
        </CharString>
        <CharString name="Aringacute">
          1490 1066 1855 -103 callgsubr
          356 -235 rmoveto
          156 103 41 63 63 -103 41 -156 hvcurveto
          -63 hlineto
          -155 -104 -41 -63 -63 104 -41 155 hvcurveto
          43 39 rmoveto
          -23 hlineto
          -45 -25 26 39 40 25 25 45 hvcurveto
          23 hlineto
          44 27 -25 -40 -39 -27 -26 -44 hvcurveto
          555 -1289 -98 callsubr
        </CharString>
        <CharString name="Aringbelow">
          1490 1307 280 rmoveto
          -16 callsubr
          62 callsubr
          -430 -844 155 callsubr
        </CharString>
        <CharString name="Atilde">
          1490 866 76 callsubr
          -66 hlineto
          -85 -2 -28 -32 -47 hhcurveto
          -31 120 callsubr
          -37 callgsubr
          67 callgsubr
          441 -1260 -98 callsubr
        </CharString>
        <CharString name="B">
          1520 1452 422 101 callsubr
        </CharString>
        <CharString name="Bdotaccent">
          1520 738 -41 callsubr
          714 -1107 101 callsubr
        </CharString>
        <CharString name="Bdotbelow">
          219 callsubr
          -269 -540 -85 callsubr
        </CharString>
        <CharString name="Becyrillic">
          1473 1416 417 rmoveto
          270 -256 144 -387 vhcurveto
          -167 546 hlineto
          181 -5 287 -8 85 -58 60 -244 rlinecurve
          55 hlineto
          -13 382 rlineto
          -1209 -57 hlineto
          108 -22 22 -26 -91 vvcurveto
          -96 callsubr
          -108 -22 vhcurveto
          -57 724 vlineto
          400 240 151 266 hvcurveto
          -446 hmoveto
          -205 -96 -133 -195 -9 vhcurveto
          -73 -3 0 695 73 -3 rlineto
          186 -9 105 -128 -205 vvcurveto
          endchar
        </CharString>
        <CharString name="Betagreek">
          1520 1452 422 101 callsubr
        </CharString>
        <CharString name="Blinebelow">
          219 callsubr
          -585 -772 -78 callsubr
        </CharString>
        <CharString name="C">
          1442 77 723 -14 callsubr
          -30 callsubr
        </CharString>
        <CharString name="Cacute">
          1442 834 -48 callsubr
          48 callsubr
          -686 -803 -14 callsubr
          -30 callsubr
        </CharString>
        <CharString name="Ccaron">
          1442 1175 -25 callsubr
          -71 0 213 -299 -36 callsubr
          -1168 -1121 -14 callsubr
          -30 callsubr
        </CharString>
        <CharString name="Ccedilla">
          1442 77 723 rmoveto
          -454 333 -270 447 -21 vhcurveto
          -129 -149 -56 callsubr
          -42 callsubr
          186 callsubr
          140 120 68 121 117 -107 67 -125 -14 -13 -1 -1 -12 hvcurveto
          60 67 rlineto
          187 2 166 39 79 53 9 428 rcurveline
          -38 callgsubr
          -30 callsubr
        </CharString>
        <CharString name="Ccedillaacute">
          1442 834 -48 callsubr
          48 callsubr
          -686 -803 rmoveto
          -454 333 -270 447 -21 vhcurveto
          -129 -149 -56 callsubr
          -42 callsubr
          186 callsubr
          140 120 68 121 117 -107 67 -125 -14 -13 -1 -1 -12 hvcurveto
          60 67 rlineto
          187 2 166 39 79 53 9 428 rcurveline
          -38 callgsubr
          -30 callsubr
        </CharString>
        <CharString name="Ccircumflex">
          1442 661 -40 callsubr
          -10 callsubr
          -514 -802 -14 callsubr
          -30 callsubr
        </CharString>
        <CharString name="Cdotaccent">
          1442 901 -63 callsubr
          -824 -806 -14 callsubr
          -30 callsubr
        </CharString>
        <CharString name="Checyrillic">
          1663 1480 196 rmoveto
          1052 vlineto
          91 24 26 108 22 vhcurveto
          57 -676 -57 vlineto
          100 -18 21 -26 -87 vvcurveto
          -545 vlineto
          -26 -56 -74 -17 -83 hhcurveto
          -171 -91 95 214 hvcurveto
          279 vlineto
          87 21 26 100 18 vhcurveto
          57 -666 -57 vlineto
          100 -18 21 -26 -87 vvcurveto
          -250 vlineto
          -304 215 -141 303 162 136 32 45 83 vhcurveto
          -434 vlineto
          -96 -25 -32 -121 -19 vhcurveto
          -57 701 57 vlineto
          -108 22 -24 26 91 vvcurveto
          endchar
        </CharString>
        <CharString name="Chigreek">
          1460 277 303 53 callsubr
        </CharString>
        <CharString name="D">
          1666 28 callsubr
          endchar
        </CharString>
        <CharString name="Dbar">
          1666 52 706 rmoveto
          131 -510 hlineto
          -91 -22 -26 -109 -22 vhcurveto
          -57 652 vlineto
          496 399 274 472 454 -355 244 -552 hvcurveto
          -640 -19 callsubr
          -474 -131 vlineto
          1080 -52 -44 callgsubr
          rlineto
          641 245 68 -245 605 vlineto
          49 -2 rlineto
          306 -9 170 -271 -375 vvcurveto
          endchar
        </CharString>
        <CharString name="Dcaron">
          1666 1070 -25 callsubr
          -71 0 213 -299 -36 callsubr
          459 -1098 116 callsubr
          endchar
        </CharString>
        <CharString name="Dcircumflexbelow">
          1666 28 callsubr
          -660 -1176 -49 callsubr
          -216 349 -210 0 -217 -349 rlineto
          endchar
        </CharString>
        <CharString name="Dcommaaccent">
          1666 28 callsubr
          -417 -1184 -47 callsubr
          -59 callsubr
          -70 callsubr
          -90 callgsubr
        </CharString>
        <CharString name="Ddotaccent">
          1666 796 -63 callsubr
          803 -783 116 callsubr
          endchar
        </CharString>
        <CharString name="Ddotbelow">
          1666 28 callsubr
          -405 -855 -85 callsubr
        </CharString>
        <CharString name="Decyrillic">
          1501 1469 72 rmoveto
          -173 1161 hlineto
          100 25 35 117 19 vhcurveto
          57 -1255 -57 vlineto
          139 -18 47 -46 -3 -145 rrcurveto
          -4 -116 -10 -449 -47 -336 -147 -205 rlinecurve
          -140 hlineto
          -10 -447 rlineto
          57 hlineto
          288 65 89 87 288 hhcurveto
          471 hlineto
          296 83 -90 -285 66 hvcurveto
          56 hlineto
          -607 447 rmoveto
          -616 hlineto
          134 211 45 320 10 459 7 310 rcurveline
          420 hlineto
          endchar
        </CharString>
        <CharString name="Deltagreek">
          1380 36 hmoveto
          1308 219 hlineto
          -501 1227 -306 0 -501 -1227 rlineto
          104 39 rmoveto
          385 921 353 -921 rlineto
          endchar
        </CharString>
        <CharString name="Djecyrillic">
          1812 -39 callsubr
          -11 callgsubr
          482 vlineto
          26 43 61 16 67 hhcurveto
          165 102 -130 -269 hvcurveto
          1 -283 -91 -244 -203 -127 27 -48 rcurveline
          401 122 289 244 355 vvcurveto
          314 -219 176 -299 -155 -124 -37 -42 -65 vhcurveto
          623 93 callgsubr
        </CharString>
        <CharString name="Dlinebelow">
          1666 28 callsubr
          -721 -1087 -78 callsubr
        </CharString>
        <CharString name="Dzecyrillic">
          1306 606 -24 95 callsubr
          endchar
        </CharString>
        <CharString name="Dzhecyrillic">
          1703 1520 1248 rmoveto
          91 24 26 107 22 vhcurveto
          57 -676 -57 vlineto
          100 -20 22 -25 -86 vvcurveto
          -1185 -490 1185 vlineto
          51 callsubr
          -676 -57 vlineto
          -71 callsubr
          -4 callsubr
          569 vlineto
          128 26 -43 -289 49 hvcurveto
          56 hlineto
          289 50 26 43 127 hhcurveto
          568 57 hlineto
          -107 22 -24 26 91 vvcurveto
          endchar
        </CharString>
        <CharString name="E">
          1322 1215 1444 -92 callsubr
        </CharString>
        <CharString name="Eacute">
          1322 647 -48 callsubr
          48 callsubr
          639 -82 -92 callsubr
        </CharString>
        <CharString name="Ebreve">
          204 callsubr
          501 -113 -92 callsubr
        </CharString>
        <CharString name="Ecaron">
          1322 988 -25 callsubr
          -71 0 213 -299 -36 callsubr
          157 -400 -92 callsubr
        </CharString>
        <CharString name="Ecedilla">
          1322 674 -462 rmoveto
          140 120 68 121 117 -106 67 -126 -13 -14 -1 -1 -12 hvcurveto
          74 82 rlineto
          9 523 -13 callgsubr
          -31 callsubr
          -1 callsubr
          -12 418 rlineto
          -8 callsubr
          5 callgsubr
        </CharString>
        <CharString name="Ecedillabreve">
          204 callsubr
          -40 -2019 rmoveto
          140 120 68 121 117 -106 67 -126 -13 -14 -1 -1 -12 hvcurveto
          74 82 rlineto
          9 523 -13 callgsubr
          -31 callsubr
          -1 callsubr
          -12 418 rlineto
          -8 callsubr
          5 callgsubr
        </CharString>
        <CharString name="Ecircumflex">
          1322 474 -40 callsubr
          -10 callsubr
          811 -81 -92 callsubr
        </CharString>
        <CharString name="Ecircumflexacute">
          1322 1039 -86 callgsubr
          -263 vmoveto
          -81 callgsubr
          -303 -22 callsubr
          826 -103 -92 callsubr
        </CharString>
        <CharString name="Ecircumflexbelow">
          1322 1215 1444 rmoveto
          -8 callsubr
          40 callsubr
          -31 callsubr
          -1 callsubr
          -785 -1480 -49 callsubr
          132 callsubr
        </CharString>
        <CharString name="Ecircumflexdotbelow">
          1322 474 -40 callsubr
          -10 callsubr
          811 -81 rmoveto
          -8 callsubr
          40 callsubr
          -31 callsubr
          -1 callsubr
          -530 -1159 -85 callsubr
        </CharString>
        <CharString name="Ecircumflexgrave">
          1322 389 109 callsubr
          -303 -22 callsubr
          826 -103 -92 callsubr
        </CharString>
        <CharString name="Ecircumflexhookabove">
          1322 992 182 callsubr
          37 callgsubr
          -303 -22 callsubr
          826 -103 -92 callsubr
        </CharString>
        <CharString name="Ecircumflextilde">
          1322 845 1798 78 callsubr
          -1 -28 -21 -55 hhcurveto
          -32 -33 7 12 -42 hvcurveto
          -41 10 rlineto
          14 -52 -51 173 callsubr
          51 -11 54 hhcurveto
          -456 -299 rmoveto
          -81 callgsubr
          -303 -22 callsubr
          826 -103 -92 callsubr
        </CharString>
        <CharString name="Ecyrillic">
          1454 77 723 -14 callsubr
          -245 -139 301 345 -7 hvcurveto
          546 -17 0 105 -546 -16 rlineto
          372 11 146 246 232 hhcurveto
          -8 callgsubr
        </CharString>
        <CharString name="Edblgrave">
          1322 565 1825 170 callsubr
          256 -81 -92 callsubr
        </CharString>
        <CharString name="Edieresis">
          1322 537 -51 callsubr
          -57 callsubr
          -12 callsubr
          323 -97 -92 callsubr
        </CharString>
        <CharString name="Edotaccent">
          1322 714 -63 callsubr
          501 -85 -92 callsubr
        </CharString>
        <CharString name="Edotbelow">
          1322 1215 1444 rmoveto
          -8 callsubr
          40 callsubr
          -31 callsubr
          -1 callsubr
          -530 -1159 -85 callsubr
        </CharString>
        <CharString name="Efcyrillic">
          2094 58 721 rmoveto
          -288 245 -196 548 -11 vhcurveto
          -39 88 callsubr
          677 86 callsubr
          39 vlineto
          554 11 238 189 294 vvcurveto
          287 -238 199 -554 11 vhcurveto
          40 vlineto
          100 24 35 118 19 vhcurveto
          57 -677 -57 vlineto
          118 -19 24 -35 -100 vvcurveto
          -39 vlineto
          -563 -11 -230 -191 -295 vvcurveto
          1533 1 rmoveto
          -223 -108 -182 -239 -22 vhcurveto
          854 vlineto
          248 -22 99 -180 -225 vvcurveto
          -1088 hmoveto
          223 106 182 242 22 vhcurveto
          -854 vlineto
          -246 21 -102 180 226 vvcurveto
          endchar
        </CharString>
        <CharString name="Egrave">
          1322 815 -5 callsubr
          830 -374 -92 callsubr
        </CharString>
        <CharString name="Ehookabove">
          1322 757 20 callsubr
          23 44 16 47 hhcurveto
          62 41 169 callsubr
          458 -428 -92 callsubr
        </CharString>
        <CharString name="Einvertedbreve">
          1322 714 -62 callgsubr
          3 -16 hvcurveto
          63 2 hlineto
          92 105 60 136 135 105 -62 -90 vhcurveto
          -2 64 vlineto
          3 17 2 19 20 vvcurveto
          139 -100 142 -209 vhcurveto
          501 -450 -92 callsubr
        </CharString>
        <CharString name="Elcyrillic">
          1540 26 callgsubr
          410 -1176 hlineto
          -92 -23 -26 -107 -21 vhcurveto
          -57 685 -94 callgsubr
          -69 callsubr
          -1234 -57 vlineto
          148 -18 37 -61 4 callgsubr
          endchar
        </CharString>
        <CharString name="Emacron">
          1322 409 -50 callsubr
          806 -298 -92 callsubr
        </CharString>
        <CharString name="Emacronacute">
          1322 1039 89 callsubr
          -1 -197 44 callsubr
          827 -273 -92 callsubr
        </CharString>
        <CharString name="Emacrongrave">
          1322 389 71 callsubr
          -1 -452 44 callsubr
          827 -273 -92 callsubr
        </CharString>
        <CharString name="Emcyrillic">
          1887 646 1444 56 callsubr
        </CharString>
        <CharString name="Encyrillic">
          10 callsubr
          -69 callsubr
          -65 callsubr
          -54 callsubr
          -3 callsubr
          endchar
        </CharString>
        <CharString name="Eogonek">
          1322 1029 -59 callgsubr
          -15 -25 108 callgsubr
          188 hlineto
          13 452 rlineto
          -54 hlineto
          -66 -283 -31 callsubr
          -36 -58 -131 28 callgsubr
          -12 418 rlineto
          -1163 -19 callsubr
          -4 callsubr
          947 84 callgsubr
          endchar
        </CharString>
        <CharString name="Epsilongreek">
          1322 1215 1444 -92 callsubr
        </CharString>
        <CharString name="Epsilontonosgreek">
          1696 1588 1444 rmoveto
          -1162 -34 callsubr
          -100 callsubr
          40 callsubr
          -92 -81 -276 -15 rrcurveto
          -179 -8 0 641 162 -5 131 -7 36 -57 30 -154 rlinecurve
          51 510 -51 hlineto
          -31 -153 -34 -58 -132 -7 rrcurveto
          -162 -4 0 608 152 -7 271 -15 85 -80 58 -251 rlinecurve
          55 hlineto
          -1512 30 22 callsubr
        </CharString>
        <CharString name="Ercyrillic">
          1487 1420 1024 58 callsubr
        </CharString>
        <CharString name="Ereversedcyrillic">
          1460 107 71 rmoveto
          -55 84 182 -40 172 hhcurveto
          498 339 299 456 445 -341 292 -494 -200 -157 -39 -54 -80 hvcurveto
          -11 -349 rlineto
          54 hlineto
          224 51 129 141 190 hhcurveto
          231 151 -244 -374 10 hvcurveto
          -546 15 0 -105 546 15 rlineto
          -360 -9 -139 -285 -246 hhcurveto
          -174 -141 116 252 -57 hvcurveto
          -54 hlineto
          endchar
        </CharString>
        <CharString name="Escyrillic">
          1442 77 723 -14 callsubr
          -30 callsubr
        </CharString>
        <CharString name="Etagreek">
          10 callsubr
          -69 callsubr
          -65 callsubr
          -54 callsubr
          -3 callsubr
          endchar
        </CharString>
        <CharString name="Etatonosgreek">
          2088 980 188 rmoveto
          514 502 -514 -75 callgsubr
          677 57 vlineto
          -108 21 -24 26 92 vvcurveto
          1052 vlineto
          93 24 25 108 21 vhcurveto
          57 -65 callsubr
          -482 -502 482 vlineto
          86 23 25 99 20 vhcurveto
          57 -676 -57 vlineto
          -71 callsubr
          -100 callsubr
          676 57 vlineto
          -100 19 -22 26 86 vvcurveto
          -891 868 22 callsubr
        </CharString>
        <CharString name="Etilde">
          1322 839 76 callsubr
          -65 hlineto
          -85 -2 -29 -32 -47 hhcurveto
          -63 callgsubr
          -116 -83 73 callgsubr
          41 hvcurveto
          29 -18 rlineto
          -35 57 48 -19 61 hhcurveto
          376 -96 -92 callsubr
        </CharString>
        <CharString name="Etildebelow">
          1322 1215 1444 rmoveto
          -8 callsubr
          40 callsubr
          -31 callsubr
          -1 callsubr
          -404 -1449 rmoveto
          118 83 86 210 -15 hvcurveto
          -61 hlineto
          -88 222 callsubr
        </CharString>
        <CharString name="F">
          1237 1186 1444 rmoveto
          -1134 -34 callsubr
          -100 callsubr
          696 -95 callgsubr
          224 callsubr
        </CharString>
        <CharString name="Fdotaccent">
          1237 689 -41 callsubr
          497 -85 rmoveto
          -1134 -34 callsubr
          -100 callsubr
          696 -95 callgsubr
          224 callsubr
        </CharString>
        <CharString name="G">
          1587 77 717 -17 callsubr
        </CharString>
        <CharString name="Gacute">
          1587 833 -75 callsubr
          -684 -809 -17 callsubr
        </CharString>
        <CharString name="Gammagreek">
          1228 1177 1444 rmoveto
          -1125 -19 callsubr
          -4 callsubr
          -106 callgsubr
          1168 vlineto
          139 -6 255 -10 80 -60 54 -241 rlinecurve
          55 hlineto
          endchar
        </CharString>
        <CharString name="Gbreve">
          1587 899 1557 rmoveto
          210 99 141 139 20 27 callgsubr
          -3 -17 -1 -20 -20 vvcurveto
          -139 99 -141 209 vhcurveto
          -822 -840 -17 callsubr
        </CharString>
        <CharString name="Gcaron">
          1587 1174 2 callsubr
          83 callsubr
          -36 callsubr
          -1166 -1127 -17 callsubr
        </CharString>
        <CharString name="Gcircumflex">
          1587 659 -40 callsubr
          -57 callgsubr
          -512 -808 -17 callsubr
        </CharString>
        <CharString name="Gcommaaccent">
          1587 77 717 rmoveto
          -440 324 -301 490 216 215 49 88 123 vhcurveto
          415 vlineto
          86 21 27 101 14 vhcurveto
          56 -624 -56 vlineto
          106 -14 22 -26 -87 vvcurveto
          -428 vlineto
          -26 -28 -60 -20 -70 hhcurveto
          -240 -128 312 361 397 142 266 250 202 138 -194 -239 53 hvcurveto
          54 hlineto
          -8 424 rlineto
          54 -85 -167 33 -205 hhcurveto
          -466 -376 -256 -495 hvcurveto
          789 -1179 36 callsubr
          -96 66 -126 -59 callsubr
          -70 callsubr
          19 callsubr
        </CharString>
        <CharString name="Gdotaccent">
          1587 899 -63 callsubr
          -822 -812 -17 callsubr
        </CharString>
        <CharString name="Geacutecyrillic">
          1229 569 -75 callsubr
          680 -82 rmoveto
          -1125 -19 callsubr
          -4 callsubr
          -106 callgsubr
          43 callgsubr
        </CharString>
        <CharString name="Gecyrillic">
          1229 1177 1444 rmoveto
          -1125 -19 callsubr
          -4 callsubr
          -106 callgsubr
          43 callgsubr
        </CharString>
        <CharString name="Germandbls">
          1610 607 hmoveto
          1379 vlineto
          149 -7 rlineto
          240 -12 105 -117 -148 vvcurveto
          -128 -73 -82 -134 -17 vhcurveto
          -278 vlineto
          213 -51 100 -129 -158 vvcurveto
          -124 -63 -74 -103 -130 -101 155 214 -36 vhcurveto
          -54 -375 hlineto
          -37 59 124 -33 150 hhcurveto
          248 241 140 279 242 -148 193 -242 60 hvcurveto
          210 13 127 94 145 vvcurveto
          178 -187 122 -431 vhcurveto
          -819 -57 hlineto
          108 -18 23 -26 -87 vvcurveto
          -1068 vlineto
          -87 -23 -26 -108 -18 vhcurveto
          -57 vlineto
          endchar
        </CharString>
        <CharString name="Geupturncyrillic">
          1202 1153 1373 rmoveto
          10 415 rlineto
          -56 hlineto
          -274 -77 -66 -70 -271 hhcurveto
          -641 -19 callsubr
          -4 callsubr
          -106 callgsubr
          1162 vlineto
          endchar
        </CharString>
        <CharString name="Gmacron">
          1587 594 -50 callsubr
          -517 -1025 -17 callsubr
        </CharString>
        <CharString name="H">
          10 callsubr
          -69 callsubr
          -65 callsubr
          -54 callsubr
          -3 callsubr
          endchar
        </CharString>
        <CharString name="Hacyrillic">
          1460 277 303 53 callsubr
        </CharString>
        <CharString name="Hardsigncyrillic">
          1710 1653 177 callsubr
          118 19 vhcurveto
          57 -940 vlineto
          -12 -382 rlineto
          54 hlineto
          48 234 77 64 196 16 11 1 rcurveline
          -1171 vlineto
          -97 -23 -33 -116 -19 vhcurveto
          -57 736 85 callgsubr
          -90 -143 -195 -9 vhcurveto
          -75 -3 0 735 70 -2 rlineto
          181 -5 109 -135 -222 vvcurveto
          endchar
        </CharString>
        <CharString name="Hbar">
          10 callsubr
          837 131 68 -131 147 vlineto
          93 23 25 108 21 vhcurveto
          57 -65 callsubr
          -155 -501 155 vlineto
          51 callsubr
          85 callsubr
          -147 -131 -68 131 -837 38 callsubr
          -3 callsubr
          586 vmoveto
          259 501 -259 vlineto
          endchar
        </CharString>
        <CharString name="Hbrevebelow">
          10 callsubr
          -69 callsubr
          -65 callsubr
          -54 callsubr
          -3 callsubr
          250 -642 rmoveto
          217 54 callgsubr
          -142 -142 45 callgsubr
          218 vhcurveto
          endchar
        </CharString>
        <CharString name="Hcaron">
          1715 1131 1844 rmoveto
          -258 -133 -256 133 -72 0 214 -300 228 0 213 300 rlineto
          -593 -1656 rmoveto
          53 callgsubr
          -69 callsubr
          -65 callsubr
          -54 callsubr
          -3 callsubr
          endchar
        </CharString>
        <CharString name="Hcedilla">
          1715 364 -462 rmoveto
          140 120 67 122 117 -107 67 -124 -16 -15 -1 -2 -13 hvcurveto
          78 92 rlineto
          301 57 hlineto
          -100 19 -21 26 86 vvcurveto
          53 callgsubr
          -69 callsubr
          -65 callsubr
          -54 callsubr
          304 vlineto
          -141 -171 rlineto
          -44 vlineto
          5 10 20 4 17 hhcurveto
          54 38 -25 -43 -44 -40 -24 -59 -47 -47 14 20 -25 hvcurveto
          -1 -54 rlineto
          -59 38 87 -41 104 hhcurveto
          endchar
        </CharString>
        <CharString name="Hcircumflex">
          1715 616 1525 rmoveto
          258 132 256 -132 72 0 -214 298 -228 0 -213 -298 rlineto
          60 -1337 rmoveto
          53 callgsubr
          -69 callsubr
          -65 callsubr
          -54 callsubr
          -3 callsubr
          endchar
        </CharString>
        <CharString name="Hdieresis">
          1715 679 1540 rmoveto
          64 callgsubr
          355 hmoveto
          64 callgsubr
          -427 -1352 rmoveto
          53 callgsubr
          -69 callsubr
          -65 callsubr
          -54 callsubr
          -3 callsubr
          endchar
        </CharString>
        <CharString name="Hdotaccent">
          1715 857 1528 rmoveto
          86 70 62 85 84 -70 61 -86 -87 -70 -61 -84 -85 70 -62 87 hvcurveto
          -250 -1340 rmoveto
          53 callgsubr
          -69 callsubr
          -65 callsubr
          -54 callsubr
          -3 callsubr
          endchar
        </CharString>
        <CharString name="Hdotbelow">
          10 callsubr
          -69 callsubr
          -65 callsubr
          -54 callsubr
          -3 callsubr
          250 -321 -85 callsubr
        </CharString>
        <CharString name="I">
          790 607 7 callsubr
          -106 callsubr
          -96 callsubr
          -93 callsubr
          -80 callsubr
        </CharString>
        <CharString name="IAcyrillic">
          1518 121 1027 rmoveto
          -182 123 -108 175 -45 vhcurveto
          -218 -397 -100 -177 -31 -39 -58 -24 rlinecurve
          -55 452 vlineto
          341 644 rlineto
          103 -456 hlineto
          -85 -21 -26 -100 -20 vhcurveto
          -57 676 57 vlineto
          -107 23 -24 26 90 vvcurveto
          1052 vlineto
          91 24 26 107 22 vhcurveto
          57 -721 vlineto
          -431 -190 -168 -249 hvcurveto
          426 15 rmoveto
          199 107 125 190 10 vhcurveto
          64 3 0 -669 -71 2 rlineto
          -167 6 -123 123 201 vvcurveto
          endchar
        </CharString>
        <CharString name="IJ">
          1580 607 7 callsubr
          -106 callsubr
          -96 callsubr
          -93 callsubr
          50 callsubr
          789 95 145 callsubr
          -685 -57 vlineto
          -71 callsubr
          18 callsubr
          138 callsubr
        </CharString>
        <CharString name="IJacute">
          1580 328 -75 callsubr
          862 -1 rmoveto
          427 294 rlineto
          6 48 callsubr
          -440 -1330 -77 callsubr
          -106 callsubr
          -96 callsubr
          -93 callsubr
          50 callsubr
          789 95 145 callsubr
          -685 -57 vlineto
          -71 callsubr
          18 callsubr
          138 callsubr
        </CharString>
        <CharString name="IUcyrillic">
          2408 607 188 rmoveto
          514 167 vlineto
          -437 8 326 -289 447 hhcurveto
          466 310 326 424 446 -329 296 -452 -447 -302 -298 -396 -25 hvcurveto
          -169 482 hlineto
          86 21 26 100 19 vhcurveto
          57 -676 -57 vlineto
          -71 callsubr
          -100 callsubr
          -3 callsubr
          952 -134 rmoveto
          -199 -120 266 412 403 89 255 216 199 121 -265 -412 -403 -91 -256 -215 hvcurveto
          endchar
        </CharString>
        <CharString name="Iacute">
          790 328 -75 callsubr
          351 -1330 -77 callsubr
          -106 callsubr
          -96 callsubr
          -93 callsubr
          -80 callsubr
        </CharString>
        <CharString name="Ibreve">
          790 395 135 callsubr
          -102 callgsubr
          -59 -136 -136 -105 61 91 vhcurveto
          2 -64 vlineto
          -2 133 callsubr
          212 -1361 -77 callsubr
          -106 callsubr
          -96 callsubr
          -93 callsubr
          -80 callsubr
        </CharString>
        <CharString name="Icaron">
          790 669 -25 callsubr
          -54 callgsubr
          -132 -1648 -77 callsubr
          -106 callsubr
          -96 callsubr
          -93 callsubr
          -80 callsubr
        </CharString>
        <CharString name="Icircumflex">
          790 154 39 callsubr
          -98 callgsubr
          522 -1329 -77 callsubr
          -106 callsubr
          -96 callsubr
          -93 callsubr
          -80 callsubr
        </CharString>
        <CharString name="Icyrillic">
          790 607 7 callsubr
          -106 callsubr
          -96 callsubr
          -93 callsubr
          -80 callsubr
        </CharString>
        <CharString name="Idblgrave">
          790 246 1825 rmoveto
          -348 -7 hlineto
          366 -24 callgsubr
          -33 callgsubr
          -33 -1329 -77 callsubr
          -106 callsubr
          -96 callsubr
          -93 callsubr
          -80 callsubr
        </CharString>
        <CharString name="Idieresis">
          790 218 -51 callsubr
          -57 callsubr
          354 hmoveto
          -52 callsubr
          35 -1345 -77 callsubr
          -106 callsubr
          -96 callsubr
          -93 callsubr
          -80 callsubr
        </CharString>
        <CharString name="Idieresisacute">
          790 720 -25 callgsubr
          65 53 41 59 59 -53 40 -65 hvcurveto
          -13 hlineto
          -64 -53 -40 -59 -59 53 -41 64 hvcurveto
          17 callgsubr
          48 -1355 -77 callsubr
          -106 callsubr
          -96 callsubr
          -93 callsubr
          -80 callsubr
        </CharString>
        <CharString name="Idotaccent">
          790 395 -41 callsubr
          212 -1333 -77 callsubr
          -106 callsubr
          -96 callsubr
          -93 callsubr
          -80 callsubr
        </CharString>
        <CharString name="Idotbelow">
          790 607 7 callsubr
          -106 callsubr
          -96 callsubr
          -93 callsubr
          50 callsubr
          -206 -329 -85 callsubr
        </CharString>
        <CharString name="Iecyrillic">
          1322 1215 1444 -92 callsubr
        </CharString>
        <CharString name="Igrave">
          790 496 -5 callsubr
          541 -1622 -77 callsubr
          -106 callsubr
          -96 callsubr
          -93 callsubr
          -80 callsubr
        </CharString>
        <CharString name="Ihookabove">
          790 438 7 callgsubr
          169 -1676 -77 callsubr
          -106 callsubr
          -96 callsubr
          -93 callsubr
          -80 callsubr
        </CharString>
        <CharString name="Iicyrillic">
          1735 607 188 rmoveto
          79 vlineto
          522 799 rlineto
          -878 -75 callgsubr
          676 -94 callgsubr
          -69 callsubr
          -676 -77 callgsubr
          -79 vlineto
          -522 -799 rlineto
          878 vlineto
          51 callsubr
          85 callsubr
          -100 callsubr
          -3 callsubr
          endchar
        </CharString>
        <CharString name="Iinvertedbreve">
          790 395 -62 callgsubr
          2 -16 hvcurveto
          64 2 callgsubr
          212 -1698 -77 callsubr
          -106 callsubr
          -96 callsubr
          -93 callsubr
          -80 callsubr
        </CharString>
        <CharString name="Iishortcyrillic">
          1735 867 -43 callgsubr
          225 callsubr
          -260 -1366 rmoveto
          79 vlineto
          522 799 rlineto
          -878 -75 callgsubr
          676 -94 callgsubr
          -69 callsubr
          -676 -77 callgsubr
          -79 vlineto
          -522 -799 rlineto
          878 vlineto
          51 callsubr
          85 callsubr
          -100 callsubr
          -3 callsubr
          endchar
        </CharString>
        <CharString name="Imacron">
          790 89 1581 rmoveto
          612 161 -612 hlineto
          518 -1546 -77 callsubr
          -106 callsubr
          -96 callsubr
          -93 callsubr
          -80 callsubr
        </CharString>
        <CharString name="Iocyrillic">
          1322 537 -51 callsubr
          -57 callsubr
          -12 callsubr
          323 -97 -92 callsubr
        </CharString>
        <CharString name="Iogonek">
          790 403 -59 callgsubr
          -14 -27 -12 -34 hhcurveto
          -75 -68 87 114 37 7 33 11 23 hvcurveto
          292 57 hlineto
          50 callsubr
          1052 37 callsubr
          -106 callsubr
          -4 callsubr
          321 vlineto
          -112 -58 -81 -105 -116 vvcurveto
          -119 95 -81 128 vhcurveto
          endchar
        </CharString>
        <CharString name="Iotadieresisgreek">
          790 218 -51 callsubr
          -57 callsubr
          354 hmoveto
          -52 callsubr
          35 -1345 -77 callsubr
          -106 callsubr
          -96 callsubr
          -93 callsubr
          -80 callsubr
        </CharString>
        <CharString name="Iotagreek">
          790 607 7 callsubr
          -106 callsubr
          -96 callsubr
          -93 callsubr
          -80 callsubr
        </CharString>
        <CharString name="Iotatonosgreek">
          1163 980 196 rmoveto
          1052 vlineto
          91 23 26 109 22 vhcurveto
          57 -686 -57 vlineto
          -71 callsubr
          -100 callsubr
          686 57 vlineto
          -109 22 -23 26 91 vvcurveto
          -891 860 22 callsubr
        </CharString>
        <CharString name="Itilde">
          790 520 76 callsubr
          -66 hlineto
          -85 -2 -28 -32 -47 hhcurveto
          -31 120 callsubr
          -37 callgsubr
          67 callgsubr
          87 -1344 -77 callsubr
          -106 callsubr
          -96 callsubr
          -93 callsubr
          -80 callsubr
        </CharString>
        <CharString name="Itildebelow">
          790 607 7 callsubr
          -106 callsubr
          -96 callsubr
          -93 callsubr
          50 callsubr
          -80 -619 rmoveto
          118 82 86 210 -14 hvcurveto
          -61 hlineto
          -88 222 callsubr
        </CharString>
        <CharString name="J">
          790 607 291 rmoveto
          957 37 callsubr
          -106 callsubr
          18 callsubr
          137 callsubr
        </CharString>
        <CharString name="Jacute">
          790 329 -75 callsubr
          350 -1235 rmoveto
          957 37 callsubr
          -106 callsubr
          18 callsubr
          137 callsubr
        </CharString>
        <CharString name="Jcircumflex">
          790 155 -40 callsubr
          -57 callgsubr
          522 -1234 rmoveto
          957 37 callsubr
          -106 callsubr
          18 callsubr
          137 callsubr
        </CharString>
        <CharString name="Jecyrillic">
          790 607 291 rmoveto
          957 37 callsubr
          -106 callsubr
          18 callsubr
          137 callsubr
        </CharString>
        <CharString name="K">
          1530 607 188 9 callsubr
        </CharString>
        <CharString name="Kaacutecyrillic">
          1530 776 -75 callsubr
          -97 -1338 9 callsubr
        </CharString>
        <CharString name="Kacute">
          1530 776 -75 callsubr
          -97 -1338 9 callsubr
        </CharString>
        <CharString name="Kacyrillic">
          1530 607 188 9 callsubr
        </CharString>
        <CharString name="Kappagreek">
          1530 607 188 9 callsubr
        </CharString>
        <CharString name="Kcaron">
          1530 1117 2 callsubr
          83 callsubr
          -36 callsubr
          -579 -1656 9 callsubr
        </CharString>
        <CharString name="Kcommaaccent">
          149 callsubr
          201 -650 -47 callsubr
          -59 callsubr
          -70 callsubr
          19 callsubr
        </CharString>
        <CharString name="Kdotbelow">
          149 callsubr
          213 -321 -85 callsubr
        </CharString>
        <CharString name="Klinebelow">
          149 callsubr
          -103 -553 -78 callsubr
        </CharString>
        <CharString name="L">
          16 callsubr
          endchar
        </CharString>
        <CharString name="Lacute">
          1237 328 -75 callsubr
          932 -1526 rmoveto
          -9 callsubr
          15 callsubr
          endchar
        </CharString>
        <CharString name="Lambdagreek">
          1487 1301 270 rmoveto
          -405 1176 -305 0 -397 -1159 -60 -177 -38 -35 -98 -18 rlinecurve
          -57 399 57 vlineto
          -133 21 -23 42 51 165 rrcurveto
          278 871 278 -881 49 -157 -27 -41 -128 -20 rlinecurve
          -57 747 57 vlineto
          -91 18 -43 35 -54 160 rrcurveto
          endchar
        </CharString>
        <CharString name="Lcaron">
          1237 971 1145 rmoveto
          256 419 -270 0 -45 -419 rlineto
          276 -1145 rmoveto
          -9 callsubr
          15 callsubr
          endchar
        </CharString>
        <CharString name="Lcircumflexbelow">
          16 callsubr
          371 -454 -49 callsubr
          132 callsubr
        </CharString>
        <CharString name="Lcommaaccent">
          16 callsubr
          614 -462 -47 callsubr
          -59 callsubr
          28 -1 rrcurveto
          57 -1 42 -22 -42 vvcurveto
          -41 -38 -24 -62 -68 callgsubr
        </CharString>
        <CharString name="Ldot">
          16 callsubr
          898 668 57 callgsubr
          endchar
        </CharString>
        <CharString name="Ldotbelow">
          16 callsubr
          626 -133 -50 callgsubr
        </CharString>
        <CharString name="Ldotbelowmacron">
          1237 89 -50 callsubr
          1099 -1742 rmoveto
          -9 callsubr
          15 callsubr
          626 -133 -50 callgsubr
        </CharString>
        <CharString name="Ljecyrillic">
          2187 26 callgsubr
          377 -1176 hlineto
          -92 -23 -26 -108 -21 vhcurveto
          -57 729 vlineto
          401 231 167 272 279 -254 153 -382 hvcurveto
          -170 362 hlineto
          100 25 35 117 19 vhcurveto
          57 -1212 -57 vlineto
          148 -19 37 -60 4 callgsubr
          1683 281 rmoveto
          -216 -89 -143 -196 -9 vhcurveto
          -76 -3 0 735 71 -2 rlineto
          181 -5 109 -135 -222 vvcurveto
          endchar
        </CharString>
        <CharString name="Llinebelow">
          16 callsubr
          310 -365 -78 callsubr
        </CharString>
        <CharString name="Lslash">
          1237 52 638 rmoveto
          131 33 rlineto
          -475 38 callsubr
          1136 vlineto
          -9 callsubr
          rrcurveto
          -125 -7 0 712 309 78 0 72 -309 -77 rlineto
          389 58 callgsubr
          -504 vlineto
          -131 -32 rlineto
          endchar
        </CharString>
        <CharString name="M">
          1887 646 1444 56 callsubr
        </CharString>
        <CharString name="Macute">
          1887 867 -74 callgsubr
          -150 -82 56 callsubr
        </CharString>
        <CharString name="Mdotaccent">
          1887 934 -63 callsubr
          -288 -85 56 callsubr
        </CharString>
        <CharString name="Mdotbelow">
          1887 646 1444 rmoveto
          -587 -57 hlineto
          104 -17 29 -42 -4 -97 rrcurveto
          -34 -965 -6 -153 -20 -38 -110 -18 rlinecurve
          -57 381 57 vlineto
          -116 22 -19 34 154 vvcurveto
          988 vlineto
          405 -1255 228 0 106 404 275 849 27 -1061 2 -90 -26 -27 -107 -18 rlinecurve
          -57 688 57 vlineto
          -112 19 -22 27 -3 93 rrcurveto
          -31 1052 -2 92 26 28 109 19 rlinecurve
          57 vlineto
          -590 1 -283 -980 rlineto
          -174 -598 129 callsubr
        </CharString>
        <CharString name="Mugreek">
          1887 646 1444 56 callsubr
        </CharString>
        <CharString name="N">
          1487 -2 callsubr
          endchar
        </CharString>
        <CharString name="Nacute">
          1487 716 -75 callsubr
          -32 -82 151 callsubr
          endchar
        </CharString>
        <CharString name="Ncaron">
          1487 1057 2 callsubr
          83 callsubr
          -36 callsubr
          -514 -400 151 callsubr
          endchar
        </CharString>
        <CharString name="Ncircumflexbelow">
          1487 -2 callsubr
          -803 -831 83 callgsubr
        </CharString>
        <CharString name="Ncommaaccent">
          1487 -2 callsubr
          -560 -839 36 callsubr
          -96 66 -125 -98 -72 -43 -55 -32 hvcurveto
          -48 vlineto
          18 8 28 7 -70 callsubr
          19 callsubr
        </CharString>
        <CharString name="Ndotaccent">
          1487 782 -63 callsubr
          -170 -85 151 callsubr
          endchar
        </CharString>
        <CharString name="Ndotbelow">
          1487 -2 callsubr
          -548 -510 -85 callsubr
        </CharString>
        <CharString name="Ngrave">
          1487 884 1525 rmoveto
          70 hlineto
          -94 299 rlineto
          -406 -6 hlineto
          158 -374 151 callsubr
          endchar
        </CharString>
        <CharString name="Njecyrillic">
          2343 607 188 rmoveto
          558 449 -558 vlineto
          -86 -21 -26 -100 -19 vhcurveto
          -57 720 vlineto
          403 227 155 256 265 -257 143 -378 hvcurveto
          -170 414 hlineto
          100 24 35 118 19 vhcurveto
          57 -687 -57 vlineto
          100 -19 21 -26 -86 vvcurveto
          -438 -449 438 vlineto
          51 callsubr
          85 callsubr
          -100 callsubr
          -3 callsubr
          1237 225 rmoveto
          -201 -90 -133 -197 -9 vhcurveto
          -77 -3 0 682 72 -1 rlineto
          182 -6 110 -124 -205 vvcurveto
          endchar
        </CharString>
        <CharString name="Nlinebelow">
          1487 -2 callsubr
          -864 -742 -78 callsubr
        </CharString>
        <CharString name="Ntilde">
          1487 907 52 callgsubr
          -47 hhcurveto
          -30 120 callsubr
          -84 -85 -213 15 hvcurveto
          65 hlineto
          86 2 29 185 callsubr
          -295 -96 151 callsubr
          endchar
        </CharString>
        <CharString name="Nugreek">
          1487 -2 callsubr
          endchar
        </CharString>
        <CharString name="O">
          5 callsubr
          68 callsubr
          -102 callsubr
        </CharString>
        <CharString name="OE">
          2129 77 722 rmoveto
          -458 376 -285 425 vhcurveto
          129 130 21 140 hhcurveto
          792 hlineto
          12 452 rlineto
          -54 hlineto
          -68 -284 -81 -81 -262 -14 rrcurveto
          -165 -8 0 641 153 -5 128 -7 35 -57 29 -155 rlinecurve
          51 512 -51 hlineto
          -30 -154 -34 -58 -128 -7 rrcurveto
          -153 -4 0 608 140 -7 261 -15 78 -80 61 -251 rlinecurve
          53 hlineto
          -12 418 rlineto
          -750 hlineto
          -148 -107 21 -138 hhcurveto
          -498 -314 -321 -422 hvcurveto
          448 -1 rmoveto
          398 129 269 262 41 39 -6 -14 31 vhcurveto
          -1295 vlineto
          -12 -34 -41 -5 -42 hhcurveto
          -231 -154 265 400 hvcurveto
          endchar
        </CharString>
        <CharString name="Oacute">
          1727 794 -75 callsubr
          -645 -807 -103 callsubr
          -102 callsubr
        </CharString>
        <CharString name="Obreve">
          1727 861 135 callsubr
          27 callgsubr
          -2 -17 -2 -20 -20 vvcurveto
          -139 99 -141 210 vhcurveto
          -784 -838 -103 callsubr
          -102 callsubr
        </CharString>
        <CharString name="Ocaron">
          1727 1135 2 callsubr
          113 callsubr
          -1127 -1125 -103 callsubr
          -102 callsubr
        </CharString>
        <CharString name="Ocircumflex">
          1727 620 39 callsubr
          114 callsubr
          -474 -806 -103 callsubr
          -102 callsubr
        </CharString>
        <CharString name="Ocircumflexacute">
          1727 1185 -86 callgsubr
          1 -263 rmoveto
          -81 callgsubr
          -304 -22 callsubr
          -458 -828 -103 callsubr
          -102 callsubr
        </CharString>
        <CharString name="Ocircumflexdotbelow">
          1727 620 39 callsubr
          114 callsubr
          -474 -806 -103 callsubr
          445 -333 297 -457 -85 callgsubr
          -99 callgsubr
          222 64 callsubr
          324 -865 -85 callsubr
        </CharString>
        <CharString name="Ocircumflexgrave">
          1727 536 109 callsubr
          -304 -22 callsubr
          -458 -828 -103 callsubr
          -102 callsubr
        </CharString>
        <CharString name="Ocircumflexhookabove">
          1727 1139 1961 rmoveto
          -90 -70 -38 -53 -39 hvcurveto
          -35 vlineto
          15 24 46 12 46 hhcurveto
          71 37 -27 -35 -38 -35 -29 -77 -14 hvcurveto
          48 -28 rlineto
          157 172 callsubr
          -304 -22 callsubr
          -458 -828 -103 callsubr
          -102 callsubr
        </CharString>
        <CharString name="Ocircumflextilde">
          1727 991 1798 rmoveto
          125 73 69 128 -3 hvcurveto
          -67 hlineto
          -48 -1 -28 -21 -54 hhcurveto
          -32 -33 7 12 -42 hvcurveto
          -41 10 rlineto
          14 -53 -50 11 -54 hhcurveto
          -125 -73 -68 -129 3 hvcurveto
          67 hlineto
          49 1 27 21 56 hhcurveto
          32 33 -7 -11 42 hvcurveto
          40 -11 rlineto
          -15 53 50 -11 54 hhcurveto
          -455 -299 rmoveto
          -81 callgsubr
          -304 -22 callsubr
          -458 -828 -103 callsubr
          -102 callsubr
        </CharString>
        <CharString name="Ocyrillic">
          5 callsubr
          68 callsubr
          -102 callsubr
        </CharString>
        <CharString name="Odblgrave">
          1727 712 1825 rmoveto
          -349 -7 hlineto
          366 -293 rlineto
          81 hlineto
          296 300 rmoveto
          -33 callgsubr
          -1029 -806 -103 callsubr
          -102 callsubr
        </CharString>
        <CharString name="Odieresis">
          1727 683 1541 rmoveto
          -52 callsubr
          355 hmoveto
          -52 callsubr
          -961 -822 -103 callsubr
          -102 callsubr
        </CharString>
        <CharString name="Odieresismacron">
          1727 535 1844 rmoveto
          651 131 -651 hlineto
          161 -424 rmoveto
          38 callgsubr
          354 hmoveto
          65 53 41 59 59 -53 40 -65 hvcurveto
          -12 hlineto
          -66 -52 -40 -59 -59 52 -41 66 hvcurveto
          -948 -832 -103 callsubr
          -102 callsubr
        </CharString>
        <CharString name="Odotaccent">
          1727 861 -41 callsubr
          -784 -810 -103 callsubr
          -102 callsubr
        </CharString>
        <CharString name="Odotaccentmacron">
          1727 535 1817 rmoveto
          651 132 -651 hlineto
          326 -407 rmoveto
          66 callgsubr
          -784 -823 -103 callsubr
          -102 callsubr
        </CharString>
        <CharString name="Odotbelow">
          5 callsubr
          68 callsubr
          445 -333 297 -457 -85 callgsubr
          -99 callgsubr
          222 64 callsubr
          324 -865 -85 callsubr
        </CharString>
        <CharString name="Ograve">
          1727 962 -5 callsubr
          -455 -1099 -103 callsubr
          -102 callsubr
        </CharString>
        <CharString name="Ohookabove">
          1727 903 20 callsubr
          24 43 16 48 hhcurveto
          61 42 -27 -45 -47 -36 -43 -79 -42 hvcurveto
          58 hlineto
          -47 callgsubr
          -826 -1153 -103 callsubr
          -102 callsubr
        </CharString>
        <CharString name="Ohorn">
          1752 77 719 -103 callsubr
          57 callsubr
        </CharString>
        <CharString name="Ohornacute">
          1752 796 -48 callsubr
          -394 vlineto
          -105 -299 rlineto
          -647 -807 -103 callsubr
          57 callsubr
        </CharString>
        <CharString name="Ohorndotbelow">
          1752 77 719 -103 callsubr
          311 -170 240 -245 111 vhcurveto
          -12 53 56 -7 56 hhcurveto
          165 113 66 122 1 hvcurveto
          108 -89 107 -150 46 vhcurveto
          -57 hlineto
          25 -26 18 -57 -1 -57 rrcurveto
          -129 -1 -92 -103 -161 -100 -94 22 -117 188 callsubr
          64 callsubr
          323 -865 129 callsubr
        </CharString>
        <CharString name="Ohorngrave">
          1752 964 1525 rmoveto
          70 -87 callgsubr
          -456 -1099 -103 callsubr
          57 callsubr
        </CharString>
        <CharString name="Ohornhookabove">
          1752 905 20 callsubr
          24 43 -66 callgsubr
          -47 callgsubr
          -828 -1153 -103 callsubr
          57 callsubr
        </CharString>
        <CharString name="Ohorntilde">
          1752 987 175 callsubr
          -30 -27 -31 callgsubr
          -60 hhcurveto
          -116 -84 -85 -213 15 hvcurveto
          65 hlineto
          86 1 30 185 callsubr
          -910 -821 -103 callsubr
          57 callsubr
        </CharString>
        <CharString name="Ohungarumlaut">
          1727 663 1825 rmoveto
          -300 73 vlineto
          242 294 rlineto
          6 vlineto
          79 hmoveto
          -99 -32 callgsubr
          -1328 -1106 -103 callsubr
          -102 callsubr
        </CharString>
        <CharString name="Oinvertedbreve">
          1727 860 32 callgsubr
          104 60 136 136 105 -62 -90 vhcurveto
          -2 64 vlineto
          2 17 2 19 20 vvcurveto
          139 -100 142 -209 vhcurveto
          -783 -1175 -103 callsubr
          -102 callsubr
        </CharString>
        <CharString name="Omacron">
          1727 555 -50 callsubr
          -478 -1023 -103 callsubr
          -102 callsubr
        </CharString>
        <CharString name="Omacronacute">
          1727 1185 89 callsubr
          -197 vmoveto
          651 132 -651 hlineto
          -458 -998 -103 callsubr
          -102 callsubr
        </CharString>
        <CharString name="Omacrongrave">
          1727 536 71 callsubr
          -1 -452 rmoveto
          651 132 -651 hlineto
          -458 -998 -103 callsubr
          -102 callsubr
        </CharString>
        <CharString name="Omegagreek">
          1642 85 74 callgsubr
          119 181 209 23 callgsubr
          56 466 rlineto
          -45 214 callsubr
          -72 173 rrcurveto
          -45 hlineto
          endchar
        </CharString>
        <CharString name="Omegatonosgreek">
          1829 272 74 callgsubr
          120 181 208 23 callgsubr
          57 466 rlineto
          -46 214 callsubr
          -71 173 rrcurveto
          -46 hlineto
          -126 590 22 callsubr
        </CharString>
        <CharString name="Omicrongreek">
          5 callsubr
          68 callsubr
          -102 callsubr
        </CharString>
        <CharString name="Omicrontonosgreek">
          1845 195 719 rmoveto
          -445 331 -298 459 471 313 327 423 445 -333 297 -458 -471 -312 -326 -423 vhcurveto
          -106 337 rmoveto
          277 380 rlineto
          8 -330 vlineto
          -25 -388 rlineto
          651 -324 rmoveto
          402 92 256 222 202 123 -266 -411 -402 -92 -257 -221 -203 -123 267 411 vhcurveto
          endchar
        </CharString>
        <CharString name="Oogonek">
          5 callsubr
          211 callsubr
        </CharString>
        <CharString name="Oogonekmacron">
          1727 555 -50 callsubr
          -478 -1023 rmoveto
          211 callsubr
        </CharString>
        <CharString name="Oslash">
          5 callsubr
          191 callsubr
        </CharString>
        <CharString name="Oslashacute">
          1727 794 -75 callsubr
          -645 -807 rmoveto
          191 callsubr
        </CharString>
        <CharString name="Otilde">
          1727 985 52 callgsubr
          -46 hhcurveto
          -31 120 callsubr
          -37 callgsubr
          47 hhcurveto
          31 26 -13 -25 41 hvcurveto
          29 -18 rlineto
          -35 56 49 -19 60 hhcurveto
          -908 -821 -103 callsubr
          -102 callsubr
        </CharString>
        <CharString name="Otildeacute">
          1727 1185 124 callsubr
          456 -222 152 callsubr
        </CharString>
        <CharString name="Otildedieresis">
          1727 696 1809 rmoveto
          65 53 41 59 60 -53 40 -65 hvcurveto
          -13 hlineto
          -65 -52 -40 -60 -59 52 -41 65 hvcurveto
          354 hmoveto
          65 53 41 59 60 -53 40 -65 hvcurveto
          -12 hlineto
          -66 -52 -40 -60 -59 52 -41 66 hvcurveto
          -34 -249 152 callsubr
        </CharString>
        <CharString name="Otildemacron">
          1727 535 1843 rmoveto
          651 132 -651 hlineto
          456 -415 152 callsubr
        </CharString>
        <CharString name="P">
          1487 1420 1024 58 callsubr
        </CharString>
        <CharString name="Pacute">
          1487 670 -48 callsubr
          -394 vlineto
          -105 -299 rlineto
          822 -502 58 callsubr
        </CharString>
        <CharString name="Pdotaccent">
          1487 736 -63 callsubr
          684 -505 58 callsubr
        </CharString>
        <CharString name="Pecyrillic">
          1703 1520 196 rmoveto
          1052 vlineto
          91 24 26 107 22 vhcurveto
          57 -1599 -57 vlineto
          -20 callsubr
          -100 callsubr
          -21 callgsubr
          1185 490 -1185 vlineto
          -86 -22 -25 -100 -20 vhcurveto
          -57 676 57 vlineto
          -107 22 -24 26 91 vvcurveto
          endchar
        </CharString>
        <CharString name="Phigreek">
          2014 61 723 rmoveto
          -314 274 -193 475 -12 vhcurveto
          -1 -95 -26 -34 -115 -18 rrcurveto
          -57 677 57 vlineto
          -114 18 -26 34 -2 95 rrcurveto
          469 11 281 182 320 vvcurveto
          316 -287 193 -463 12 vhcurveto
          95 25 35 117 19 vhcurveto
          57 -677 -57 vlineto
          116 -18 25 -34 1 -97 rrcurveto
          -455 -12 -294 -180 -323 vvcurveto
          1465 hmoveto
          -253 -124 -175 -199 -24 vhcurveto
          899 vlineto
          214 -22 109 -175 -250 vvcurveto
          -1039 -1 rmoveto
          248 120 176 203 24 vhcurveto
          -899 vlineto
          -207 23 -116 173 255 vvcurveto
          endchar
        </CharString>
        <CharString name="Pigreek">
          1678 1495 196 rmoveto
          1052 vlineto
          91 23 26 108 22 vhcurveto
          57 -1574 -57 vlineto
          -71 callsubr
          -100 callsubr
          -3 callsubr
          1185 464 -1185 vlineto
          -86 -21 -26 -101 -19 vhcurveto
          -57 677 57 vlineto
          -108 22 -23 26 91 vvcurveto
          endchar
        </CharString>
        <CharString name="Psigreek">
          1999 1197 211 rmoveto
          292 vlineto
          365 12 190 120 52 362 rrcurveto
          30 212 18 126 32 34 89 4 rlinecurve
          58 vlineto
          5 -34 -75 8 -67 hhcurveto
          -201 -110 -76 -225 -32 hvcurveto
          -32 -216 -35 -236 -50 -96 -140 -20 rlinecurve
          681 vlineto
          87 22 26 99 18 vhcurveto
          57 -637 -77 callgsubr
          -681 vlineto
          -141 20 -50 96 -36 236 -31 216 rcurveline
          225 -33 -109 76 -202 hhcurveto
          -65 -76 -8 -5 -34 hvcurveto
          -58 vlineto
          89 -4 32 -34 18 -126 rrcurveto
          30 -212 52 -362 189 -120 367 -12 rlinecurve
          -292 vlineto
          -100 -24 -35 -117 -19 vhcurveto
          -57 676 57 vlineto
          -118 19 -23 35 100 vvcurveto
          endchar
        </CharString>
        <CharString name="Q">
          5 callsubr
          -391 257 -278 373 -61 vhcurveto
          125 -126 rlineto
          -187 173 114 -58 165 hhcurveto
          135 128 41 68 109 hvcurveto
          53 vlineto
          -112 -18 -107 44 -184 150 -85 70 rcurveline
          298 108 185 268 324 vvcurveto
          445 -332 297 -457 -472 -313 -326 -423 -99 callgsubr
          220 204 124 -266 -411 -1 vhcurveto
          -402 -92 -257 -220 -203 -123 267 411 vhcurveto
          endchar
        </CharString>
        <CharString name="R">
          1510 1391 1056 148 callsubr
          endchar
        </CharString>
        <CharString name="Racute">
          1510 658 -74 callgsubr
          804 -470 148 callsubr
          endchar
        </CharString>
        <CharString name="Rcaron">
          1510 999 -25 callsubr
          -71 0 213 -299 -36 callsubr
          322 -788 148 callsubr
          endchar
        </CharString>
        <CharString name="Rcommaaccent">
          -49 callgsubr
          -187 -1496 -47 callsubr
          -59 callsubr
          -70 callsubr
          -90 callgsubr
        </CharString>
        <CharString name="Rdblgrave">
          1510 576 1825 rmoveto
          -348 -7 hlineto
          366 -293 rlineto
          80 hlineto
          297 300 rmoveto
          -33 callgsubr
          420 -469 148 callsubr
          endchar
        </CharString>
        <CharString name="Rdotaccent">
          1510 725 -63 callsubr
          666 -473 148 callsubr
          endchar
        </CharString>
        <CharString name="Rdotbelow">
          -49 callgsubr
          -175 -1167 -85 callsubr
        </CharString>
        <CharString name="Rdotbelowmacron">
          1510 420 -50 callsubr
          971 -686 148 callsubr
          -175 -1167 -85 callsubr
        </CharString>
        <CharString name="Rhogreek">
          1487 1420 1024 58 callsubr
        </CharString>
        <CharString name="Rinvertedbreve">
          1510 725 1894 rmoveto
          -209 -100 -142 -139 -20 2 -20 3 -16 hvcurveto
          64 2 hlineto
          92 104 60 136 135 35 callgsubr
          666 -838 148 callsubr
          endchar
        </CharString>
        <CharString name="Rlinebelow">
          -49 callgsubr
          -491 -1399 -78 callsubr
        </CharString>
        <CharString name="S">
          1306 606 -24 95 callsubr
          endchar
        </CharString>
        <CharString name="Sacute">
          1306 626 -75 callsubr
          52 -1550 95 callsubr
          endchar
        </CharString>
        <CharString name="Sacutedotaccent">
          1306 693 1770 rmoveto
          66 callgsubr
          325 -149 rmoveto
          166 vlineto
          -651 -209 rlineto
          -46 vlineto
          239 -1556 95 callsubr
          endchar
        </CharString>
        <CharString name="Scaron">
          1306 967 2 callsubr
          113 callsubr
          -430 -1868 95 callsubr
          endchar
        </CharString>
        <CharString name="Scarondotaccent">
          1306 693 1791 rmoveto
          70 55 46 63 63 -55 45 -70 -70 -56 -45 -63 -63 55 -46 71 hvcurveto
          333 -4 rmoveto
          -333 -79 -334 79 0 -48 312 -191 45 0 311 191 rlineto
          -421 -1763 95 callsubr
          endchar
        </CharString>
        <CharString name="Scedilla">
          1306 613 -462 rmoveto
          -29 callsubr
          62 69 rlineto
          326 17 240 165 283 vvcurveto
          222 -128 160 -271 89 vhcurveto
          -131 43 rlineto
          -164 54 -73 70 111 vvcurveto
          116 86 82 160 187 137 -154 -226 49 vhcurveto
          54 hlineto
          -7 371 rlineto
          51 -82 -154 36 -191 hhcurveto
          -383 -239 -171 -285 -217 139 -151 259 -84 hvcurveto
          131 -43 rlineto
          170 -56 69 -77 -116 vvcurveto
          -126 -98 -88 -156 -202 -188 169 273 -55 vhcurveto
          -54 hlineto
          13 -426 105 -54 180 -38 198 -2 rlinecurve
          -128 -147 -56 callsubr
          -42 callsubr
          112 callsubr
        </CharString>
        <CharString name="Schwa">
          1553 715 -24 rmoveto
          488 272 311 432 504 -365 245 -467 -211 -176 -34 -52 -86 hvcurveto
          -8 -424 rlineto
          55 hlineto
          234 53 140 198 215 hhcurveto
          246 142 -255 -424 2 hvcurveto
          -956 hlineto
          -4 -26 -5 -42 -39 vvcurveto
          -375 237 -253 428 vhcurveto
          -257 562 rmoveto
          33 1 37 4 31 vhcurveto
          551 3 rlineto
          -363 -9 -90 -225 -198 hhcurveto
          -197 -62 236 248 hvcurveto
          endchar
        </CharString>
        <CharString name="Scircumflex">
          1306 452 39 callsubr
          114 callsubr
          223 -1549 95 callsubr
          endchar
        </CharString>
        <CharString name="Scommaaccent">
          1306 606 -24 95 callsubr
          19 -438 -47 callsubr
          -59 callsubr
          -70 callsubr
          -90 callgsubr
        </CharString>
        <CharString name="Sdotaccent">
          1306 693 -41 callsubr
          -87 -1553 95 callsubr
          endchar
        </CharString>
        <CharString name="Sdotbelow">
          1306 606 -24 95 callsubr
          31 -109 -85 callsubr
        </CharString>
        <CharString name="Sdotbelowdotaccent">
          1306 693 -41 callsubr
          -87 -1553 95 callsubr
          31 -109 -85 callsubr
        </CharString>
        <CharString name="Shacyrillic">
          2485 2302 7 callsubr
          33 callgsubr
          26 100 19 vhcurveto
          57 -667 -57 vlineto
          100 -19 21 -26 -86 vvcurveto
          -1185 -423 1185 vlineto
          86 21 26 100 19 vhcurveto
          57 -676 -57 vlineto
          -71 callsubr
          -100 callsubr
          2381 57 vlineto
          -80 callsubr
        </CharString>
        <CharString name="Shchacyrillic">
          2508 2475 71 rmoveto
          -173 1177 hlineto
          91 22 26 109 22 vhcurveto
          57 33 callgsubr
          25 100 20 vhcurveto
          57 -667 -57 vlineto
          99 -20 22 -25 -86 vvcurveto
          -1185 -423 1185 vlineto
          86 21 26 100 19 vhcurveto
          57 -676 -57 vlineto
          -71 callsubr
          -100 callsubr
          2000 vlineto
          239 59 -67 -277 78 hvcurveto
          56 hlineto
          endchar
        </CharString>
        <CharString name="Sigmagreek">
          86 callgsubr
          477 -728 -464 -442 rlineto
          -219 1180 vlineto
          14 572 rlineto
          -64 hlineto
          -221 -55 -76 -59 -304 hhcurveto
          -514 hlineto
          619 526 0 17 -343 544 194 -7 300 -14 84 -85 60 -244 rlinecurve
          54 hlineto
          endchar
        </CharString>
        <CharString name="Softsigncyrillic">
          1470 1412 177 callsubr
          117 19 vhcurveto
          57 -696 -57 vlineto
          -20 callsubr
          -100 callsubr
          728 85 callgsubr
          11 callgsubr
        </CharString>
        <CharString name="T">
          1388 -39 callsubr
          -61 callsubr
          -46 callsubr
          -45 callsubr
          -55 callsubr
          -60 callsubr
          endchar
        </CharString>
        <CharString name="Taugreek">
          1388 -39 callsubr
          -61 callsubr
          -46 callsubr
          -45 callsubr
          -55 callsubr
          -60 callsubr
          endchar
        </CharString>
        <CharString name="Tbar">
          1388 204 706 rmoveto
          278 -495 hlineto
          -101 -24 -34 -118 -19 vhcurveto
          -57 -45 callsubr
          34 101 vvcurveto
          495 279 68 -279 605 -60 callsubr
          -12 418 -1288 0 -12 -61 callsubr
          -605 -278 vlineto
          endchar
        </CharString>
        <CharString name="Tcaron">
          1388 968 2 callsubr
          113 callsubr
          301 -400 rmoveto
          -1288 hlineto
          -12 -61 callsubr
          -46 callsubr
          -45 callsubr
          -55 callsubr
          -60 callsubr
          endchar
        </CharString>
        <CharString name="Tcedilla">
          1388 670 13 callgsubr
          314 57 hlineto
          -118 19 -25 -55 callsubr
          -60 callsubr
          -12 418 -1288 0 -12 -61 callsubr
          -46 callsubr
          323 vlineto
          -141 -171 -56 callsubr
          17 hhcurveto
          55 37 -25 -43 -44 -40 -24 -59 -47 -47 14 20 -25 hvcurveto
          -1 -54 rlineto
          -59 38 87 -41 103 hhcurveto
          endchar
        </CharString>
        <CharString name="Tcircumflexbelow">
          1388 -39 callsubr
          -61 callsubr
          -46 callsubr
          -45 callsubr
          -55 callsubr
          -60 callsubr
          -911 -1480 -49 callsubr
          132 callsubr
        </CharString>
        <CharString name="Tcommaaccent">
          1388 -39 callsubr
          -61 callsubr
          -46 callsubr
          -45 callsubr
          -55 callsubr
          -60 callsubr
          -668 -1488 -47 callsubr
          -59 callsubr
          28 -1 rrcurveto
          57 -1 42 -22 -42 vvcurveto
          -41 -38 -24 -62 -68 callgsubr
        </CharString>
        <CharString name="Tdotaccent">
          1388 694 -41 callsubr
          644 -85 rmoveto
          -1288 hlineto
          -12 -61 callsubr
          -46 callsubr
          -45 callsubr
          -55 callsubr
          -60 callsubr
          endchar
        </CharString>
        <CharString name="Tdotbelow">
          1388 -39 callsubr
          -61 callsubr
          -46 callsubr
          -45 callsubr
          -55 callsubr
          -60 callsubr
          -656 -1159 -50 callgsubr
        </CharString>
        <CharString name="Tecyrillic">
          1388 -39 callsubr
          -61 callsubr
          -46 callsubr
          -45 callsubr
          -55 callsubr
          -60 callsubr
          endchar
        </CharString>
        <CharString name="Thetagreek">
          1744 875 -24 rmoveto
          477 316 326 423 445 -338 298 -460 -478 -315 -327 -423 -445 337 -297 461 hvcurveto
          68 vmoveto
          -233 -134 255 433 427 106 241 256 233 134 -252 -436 -426 -106 -242 -256 hvcurveto
          -245 428 rmoveto
          43 hlineto
          133 20 50 78 112 hhcurveto
          39 hlineto
          112 52 -78 -133 18 hvcurveto
          44 504 -44 hlineto
          -131 -18 -52 -77 -112 hhcurveto
          -39 hlineto
          -112 -50 77 131 -20 hvcurveto
          -43 hlineto
          endchar
        </CharString>
        <CharString name="Thorn">
          1473 1420 752 rmoveto
          269 -243 125 -418 vhcurveto
          -152 87 hlineto
          100 24 35 117 19 vhcurveto
          57 -696 -57 vlineto
          -71 callsubr
          -100 callsubr
          696 -95 callgsubr
          118 152 vlineto
          397 1 264 151 271 vvcurveto
          -445 -20 rmoveto
          -202 -118 -124 -189 -9 vhcurveto
          -61 -3 0 687 61 -2 rlineto
          203 -10 104 -144 -193 vvcurveto
          endchar
        </CharString>
        <CharString name="Tlinebelow">
          1388 -39 callsubr
          -61 callsubr
          -46 callsubr
          -45 callsubr
          -55 callsubr
          -60 callsubr
          -972 -1391 -78 callsubr
        </CharString>
        <CharString name="Tsecyrillic">
          1726 1694 71 rmoveto
          -174 1177 hlineto
          91 24 26 107 22 vhcurveto
          57 -676 -57 vlineto
          100 -19 22 -26 -86 vvcurveto
          -1185 -490 1185 vlineto
          86 21 26 100 19 vhcurveto
          57 -676 -57 vlineto
          -71 callsubr
          -100 callsubr
          1220 vlineto
          238 59 -67 -277 78 hvcurveto
          56 hlineto
          endchar
        </CharString>
        <CharString name="Tshecyrillic">
          1869 -39 callsubr
          -11 callgsubr
          480 vlineto
          28 48 67 16 77 hhcurveto
          150 84 -90 -200 hvcurveto
          -433 545 57 vlineto
          -100 20 -21 25 86 vvcurveto
          217 vlineto
          302 -215 126 -277 -156 -126 -34 -47 -76 vhcurveto
          625 93 callgsubr
        </CharString>
        <CharString name="U">
          1525 158 1253 -83 callsubr
        </CharString>
        <CharString name="Uacute">
          1525 788 -48 callsubr
          48 callsubr
          -559 -273 -83 callsubr
        </CharString>
        <CharString name="Ubreve">
          1525 855 59 callgsubr
          -63 -2 hlineto
          -93 -105 -59 -136 -135 -106 61 91 vhcurveto
          2 -63 vlineto
          -3 133 callsubr
          -697 -304 -83 callsubr
        </CharString>
        <CharString name="Ubrevecyrillic">
          1454 854 -43 callgsubr
          225 callsubr
          -637 -1399 198 callsubr
        </CharString>
        <CharString name="Ucaron">
          1525 1129 -25 callsubr
          -71 0 213 -299 -36 callsubr
          -1041 -591 -83 callsubr
        </CharString>
        <CharString name="Ucircumflex">
          1525 615 -40 callsubr
          -10 callsubr
          -387 -272 -83 callsubr
        </CharString>
        <CharString name="Ucircumflexbelow">
          111 callsubr
          417 -1707 rmoveto
          255 161 255 -161 67 0 -217 349 -210 0 -216 -349 rlineto
          endchar
        </CharString>
        <CharString name="Ucyrillic">
          1454 217 155 198 callsubr
        </CharString>
        <CharString name="Udblgrave">
          1525 706 1825 170 callsubr
          -942 -272 -83 callsubr
        </CharString>
        <CharString name="Udieresis">
          1525 678 -51 callsubr
          -57 callsubr
          -12 callsubr
          -875 -288 -83 callsubr
        </CharString>
        <CharString name="Udieresisacute">
          1525 1180 -25 callgsubr
          -15 callsubr
          -861 -298 -83 callsubr
        </CharString>
        <CharString name="Udieresisbelow">
          111 callsubr
          448 -1678 rmoveto
          -71 callgsubr
          449 hmoveto
          -71 callgsubr
          endchar
        </CharString>
        <CharString name="Udieresiscaron">
          1525 1180 -4 callgsubr
          -861 -298 -83 callsubr
        </CharString>
        <CharString name="Udieresisgrave">
          1525 530 1871 rmoveto
          650 -89 0 46 -650 209 rlineto
          160 -486 rmoveto
          -15 callsubr
          -861 -298 -83 callsubr
        </CharString>
        <CharString name="Udieresismacron">
          1525 529 -70 callgsubr
          -15 callsubr
          -861 -298 -83 callsubr
        </CharString>
        <CharString name="Udotbelow">
          111 callsubr
          672 -1386 -85 callsubr
        </CharString>
        <CharString name="Ugrave">
          1525 956 -5 callsubr
          -368 -565 -83 callsubr
        </CharString>
        <CharString name="Uhookabove">
          1525 898 20 callsubr
          23 44 16 47 hhcurveto
          62 41 -27 -45 -47 -35 -43 -80 -42 hvcurveto
          59 hlineto
          187 53 75 63 80 vvcurveto
          84 -78 58 -113 vhcurveto
          -740 -619 -83 callsubr
        </CharString>
        <CharString name="Uhorn">
          1721 162 545 54 callsubr
        </CharString>
        <CharString name="Uhornacute">
          1721 801 -48 callsubr
          -394 vlineto
          -105 -299 rlineto
          -567 -981 54 callsubr
        </CharString>
        <CharString name="Uhorndotbelow">
          1721 162 545 rmoveto
          -391 275 -178 352 363 212 223 342 3 vhcurveto
          7 853 rlineto
          -6 31 33 -4 33 hhcurveto
          145 98 65 113 108 -86 101 -146 47 hvcurveto
          -56 hlineto
          24 -26 18 -57 -57 vvcurveto
          -126 -1 -93 -108 -177 hhcurveto
          -69 -57 hlineto
          129 -22 19 -31 1 -141 8 -643 rcurveline
          -264 2 -135 -162 -213 hhcurveto
          -214 -139 132 297 hvcurveto
          695 vlineto
          91 24 26 125 22 vhcurveto
          57 -712 -57 vlineto
          115 -22 24 -26 -91 vvcurveto
          638 -1381 rmoveto
          -85 -70 -62 -85 -85 70 -62 85 86 70 62 85 85 -70 62 -86 hvcurveto
          endchar
        </CharString>
        <CharString name="Uhorngrave">
          1721 969 1525 rmoveto
          70 -87 callgsubr
          -376 -1273 54 callsubr
        </CharString>
        <CharString name="Uhornhookabove">
          1721 910 20 callsubr
          24 43 -66 callgsubr
          -47 callgsubr
          -748 -1327 54 callsubr
        </CharString>
        <CharString name="Uhorntilde">
          1721 992 175 callsubr
          -30 -27 -31 callgsubr
          -60 hhcurveto
          -116 -84 -85 -213 15 hvcurveto
          65 hlineto
          86 1 30 185 callsubr
          -830 -995 54 callsubr
        </CharString>
        <CharString name="Uhungarumlaut">
          1525 657 1825 rmoveto
          -300 74 vlineto
          242 294 rlineto
          6 vlineto
          79 hmoveto
          -100 -32 callgsubr
          -1241 -572 -83 callsubr
        </CharString>
        <CharString name="Uinvertedbreve">
          1525 855 -62 callgsubr
          3 -16 hvcurveto
          63 2 hlineto
          92 105 60 136 135 35 callgsubr
          -697 -641 -83 callsubr
        </CharString>
        <CharString name="Umacron">
          1525 550 -50 callsubr
          -392 -489 -83 callsubr
        </CharString>
        <CharString name="Umacrondieresis">
          1525 690 1809 rmoveto
          66 52 41 59 60 -91 callgsubr
          -60 141 callsubr
          60 -92 callgsubr
          56 callgsubr
          -396 -464 -83 callsubr
        </CharString>
        <CharString name="Uogonek">
          1525 833 -479 rmoveto
          118 96 65 95 29 hvcurveto
          54 vlineto
          -17 -15 -26 -12 -34 hhcurveto
          -76 -68 81 108 34 6 30 11 22 hvcurveto
          314 34 169 217 6 313 rrcurveto
          11 630 3 155 18 38 105 19 rlinecurve
          57 -372 -57 vlineto
          118 -22 20 -36 3 -157 12 -605 rcurveline
          -282 5 -145 -161 -211 12 callgsubr
          -20 22 -25 -89 vvcurveto
          -36 callgsubr
          vhcurveto
          3 hlineto
          -106 -57 -73 -95 -104 vvcurveto
          -118 95 -81 129 vhcurveto
          endchar
        </CharString>
        <CharString name="Upsilondieresisgreek">
          1419 636 -51 callsubr
          -57 callsubr
          -12 callsubr
          -794 -351 -64 callsubr
        </CharString>
        <CharString name="Upsilongreek">
          1419 197 1190 -64 callsubr
        </CharString>
        <CharString name="Upsilontonosgreek">
          1833 612 1190 rmoveto
          302 -557 rlineto
          -422 -88 callgsubr
          707 57 vlineto
          -118 19 -23 35 100 vvcurveto
          447 vlineto
          277 -67 callgsubr
          122 -18 16 -40 -80 -167 rrcurveto
          -207 -428 -228 444 -78 153 15 40 117 16 rlinecurve
          57 -720 -57 vlineto
          91 -20 34 -34 80 -143 rrcurveto
          -523 -134 22 callsubr
        </CharString>
        <CharString name="Uring">
          1525 568 1723 -6 callgsubr
          32 54 47 47 32 -54 -76 -78 -32 -51 -47 -47 -32 52 77 vhcurveto
          -618 -470 -83 callsubr
        </CharString>
        <CharString name="Utilde">
          1525 980 76 callsubr
          -65 hlineto
          -85 -2 -29 -32 -47 hhcurveto
          -63 callgsubr
          44 callgsubr
          -822 -287 -83 callsubr
        </CharString>
        <CharString name="Utildeacute">
          1525 1180 124 callsubr
          456 -222 78 callsubr
          -1 -28 -21 -55 hhcurveto
          -32 -33 7 11 -42 hvcurveto
          -41 12 rlineto
          13 230 callsubr
          -828 -307 -83 callsubr
        </CharString>
        <CharString name="Utildebelow">
          111 callsubr
          799 -1676 rmoveto
          118 82 81 callsubr
          107 callsubr
          61 hhcurveto
          endchar
        </CharString>
        <CharString name="V">
          95 callgsubr
          endchar
        </CharString>
        <CharString name="Vdotbelow">
          95 callgsubr
          568 -1297 129 callsubr
        </CharString>
        <CharString name="Vecyrillic">
          1520 1452 422 101 callsubr
        </CharString>
        <CharString name="Vtilde">
          1482 985 76 callsubr
          -65 hlineto
          -85 -2 -29 -32 -47 hhcurveto
          -31 -26 11 26 -41 hvcurveto
          -29 18 rlineto
          36 -56 -50 19 -61 hhcurveto
          44 callgsubr
          -803 -376 rmoveto
          210 callsubr
          endchar
        </CharString>
        <CharString name="W">
          2293 174 1164 8 callsubr
        </CharString>
        <CharString name="Wacute">
          2293 1194 -75 callsubr
          -948 -362 8 callsubr
        </CharString>
        <CharString name="Wcircumflex">
          2293 1021 -40 callsubr
          -10 callsubr
          -777 -361 8 callsubr
        </CharString>
        <CharString name="Wdieresis">
          2293 1084 -51 callsubr
          -57 callsubr
          -12 callsubr
          -1265 -377 8 callsubr
        </CharString>
        <CharString name="Wdotaccent">
          2293 1261 -41 callsubr
          -1087 -365 8 callsubr
        </CharString>
        <CharString name="Wdotbelow">
          2293 174 1164 rmoveto
          351 -1166 289 0 333 1122 324 -1122 293 0 347 1137 59 196 35 37 100 19 rlinecurve
          57 -403 -57 vlineto
          127 -20 18 -41 -46 -183 rrcurveto
          -209 -804 -220 838 -42 157 8 32 119 21 rlinecurve
          57 -688 -57 vlineto
          118 -20 12 -32 -40 -155 rrcurveto
          -217 -840 -218 822 -41 164 21 41 130 20 rlinecurve
          57 -742 -57 vlineto
          97 -18 35 -38 50 -167 rrcurveto
          969 -1297 129 callsubr
        </CharString>
        <CharString name="Wgrave">
          2293 1362 -5 callsubr
          -758 -654 8 callsubr
        </CharString>
        <CharString name="X">
          1460 277 303 53 callsubr
        </CharString>
        <CharString name="Xdieresis">
          1460 664 1541 rmoveto
          -52 callsubr
          355 hmoveto
          -52 callsubr
          -742 -1238 53 callsubr
        </CharString>
        <CharString name="Xdotaccent">
          1460 841 -63 callsubr
          -564 -1226 53 callsubr
        </CharString>
        <CharString name="Xigreek">
          1358 1270 1444 rmoveto
          -1179 hlineto
          -23 -488 rlineto
          54 hlineto
          173 45 72 37 259 hhcurveto
          362 hlineto
          258 73 -37 -173 44 hvcurveto
          55 hlineto
          -649 -266 rmoveto
          77 hlineto
          182 54 -50 -152 30 232 callsubr
          -77 hlineto
          -182 -56 49 151 -29 hvcurveto
          -52 -476 52 hlineto
          152 29 56 50 182 hhcurveto
          654 -690 rmoveto
          17 549 rlineto
          -54 hlineto
          -211 -48 -76 -49 -285 hhcurveto
          -340 hlineto
          -286 -75 49 211 -48 hvcurveto
          -54 hlineto
          17 -549 rlineto
          endchar
        </CharString>
        <CharString name="Xigreek.1">
          1358 642 690 rmoveto
          11 -401 -144 hlineto
          -286 -75 49 211 -48 hvcurveto
          -54 hlineto
          18 -549 1231 0 18 549 rlineto
          -55 hlineto
          -211 -48 -76 -49 -285 hhcurveto
          -142 401 11 hlineto
          182 55 -50 -152 29 232 callsubr
          -11 402 153 hlineto
          258 74 -37 -173 44 hvcurveto
          54 hlineto
          -19 488 -1180 0 -23 -488 rlineto
          55 hlineto
          173 44 72 37 260 hhcurveto
          154 -402 -11 hlineto
          -183 -55 49 151 -30 hvcurveto
          -51 -476 51 hlineto
          152 29 56 50 183 hhcurveto
          endchar
        </CharString>
        <CharString name="Y">
          1419 197 1190 -64 callsubr
        </CharString>
        <CharString name="Yacute">
          1419 746 -74 callgsubr
          -478 -336 -64 callsubr
        </CharString>
        <CharString name="Ycircumflex">
          1419 573 -40 callsubr
          -10 callsubr
          -306 -335 -64 callsubr
        </CharString>
        <CharString name="Ydieresis">
          1419 636 -51 callsubr
          -57 callsubr
          -12 callsubr
          -794 -351 -64 callsubr
        </CharString>
        <CharString name="Ydotaccent">
          1419 813 -63 callsubr
          -616 -339 -64 callsubr
        </CharString>
        <CharString name="Ydotbelow">
          1419 197 1190 rmoveto
          303 -557 rlineto
          -422 -88 callgsubr
          707 86 callsubr
          447 vlineto
          278 -67 callgsubr
          226 callsubr
          525 -1323 -85 callsubr
        </CharString>
        <CharString name="Yericyrillic">
          2183 1412 177 callsubr
          117 19 vhcurveto
          57 -696 -57 vlineto
          -20 callsubr
          -100 callsubr
          728 vlineto
          400 232 167 272 hvcurveto
          588 -243 rmoveto
          1052 vlineto
          91 23 26 108 22 vhcurveto
          57 -106 callsubr
          -96 callsubr
          -93 callsubr
          -108 22 -23 26 91 vvcurveto
          -1033 242 rmoveto
          -216 11 callgsubr
        </CharString>
        <CharString name="Ygrave">
          1419 914 -5 callsubr
          -287 -628 -64 callsubr
        </CharString>
        <CharString name="Yhookabove">
          1419 856 20 callsubr
          23 44 -66 callgsubr
          187 53 75 63 80 vvcurveto
          84 -78 58 -113 vhcurveto
          -659 -682 -64 callsubr
        </CharString>
        <CharString name="Yicyrillic">
          790 218 -51 callsubr
          -57 callsubr
          354 hmoveto
          -52 callsubr
          35 -1345 -77 callsubr
          -106 callsubr
          -96 callsubr
          -93 callsubr
          -80 callsubr
        </CharString>
        <CharString name="Ymacron">
          1419 508 -50 callsubr
          -311 -552 -64 callsubr
        </CharString>
        <CharString name="Ytilde">
          1419 938 175 callsubr
          -31 -26 -31 callgsubr
          -61 hhcurveto
          44 callgsubr
          -741 -350 -64 callsubr
        </CharString>
        <CharString name="Z">
          1333 1252 hmoveto
          12 callsubr
        </CharString>
        <CharString name="Zacute">
          1333 634 -75 callsubr
          690 -1526 rmoveto
          12 callsubr
        </CharString>
        <CharString name="Zcaron">
          1333 975 2 callsubr
          83 callsubr
          -36 callsubr
          208 -1844 rmoveto
          12 callsubr
        </CharString>
        <CharString name="Zcircumflex">
          1333 460 -40 callsubr
          -57 callgsubr
          862 -1525 rmoveto
          12 callsubr
        </CharString>
        <CharString name="Zdotaccent">
          1333 700 -63 callsubr
          552 -1529 rmoveto
          12 callsubr
        </CharString>
        <CharString name="Zdotbelow">
          0 callgsubr
          610 -135 -85 callsubr
        </CharString>
        <CharString name="Zecyrillic">
          1302 1234 418 rmoveto
          235 -234 108 -276 13 vhcurveto
          261 26 210 113 203 vvcurveto
          244 -252 108 -395 -178 -160 -40 -52 -87 vhcurveto
          -8 -385 rlineto
          54 hlineto
          219 46 125 180 183 hhcurveto
          161 73 -107 -187 -201 -102 -107 -193 hvcurveto
          -110 -71 110 hlineto
          218 111 -114 -205 -228 -109 -116 -181 -168 -140 165 239 -52 hvcurveto
          -54 hlineto
          9 -387 rlineto
          -53 89 163 -42 177 hhcurveto
          387 322 127 315 hvcurveto
          endchar
        </CharString>
        <CharString name="Zetagreek">
          1333 1252 hmoveto
          12 callsubr
        </CharString>
        <CharString name="Zhecyrillic">
          2216 472 hmoveto
          358 695 74 1 rlineto
          -508 vlineto
          -87 -22 -26 -101 -18 vhcurveto
          -57 638 57 vlineto
          -100 18 -22 26 87 vvcurveto
          508 vlineto
          73 -1 358 -695 rlineto
          495 55 hlineto
          -64 25 -36 39 -118 226 rrcurveto
          -343 668 147 151 151 147 76 49 123 27 rlinecurve
          57 -446 -57 vlineto
          123 -20 7 -38 -109 -129 rrcurveto
          -363 -432 -74 -1 rlineto
          489 vlineto
          87 22 26 100 18 vhcurveto
          57 -638 -57 vlineto
          101 -18 22 -26 -87 vvcurveto
          -489 vlineto
          -75 1 -363 432 -108 129 8 38 121 20 rlinecurve
          57 -445 -57 vlineto
          123 -27 71 -48 150 -148 rrcurveto
          160 -166 -335 -653 -118 -226 -36 -39 -64 -25 rlinecurve
          -55 vlineto
          endchar
        </CharString>
        <CharString name="Zlinebelow">
          0 callgsubr
          294 -367 -78 callsubr
        </CharString>
        <CharString name="a">
          79 callsubr
          -94 callsubr
        </CharString>
        <CharString name="a.dnum">
          750 220 -11 rmoveto
          101 77 37 61 20 hvcurveto
          -63 12 76 -32 76 hhcurveto
          58 53 13 49 callgsubr
          138 -104 61 -185 -181 -101 -68 -79 -51 44 -38 58 57 45 41 53 35 -20 30 -30 15 vhcurveto
          3 15 16 2 17 hhcurveto
          87 45 -37 -92 hvcurveto
          -49 vlineto
          -108 -20 rlineto
          -186 -34 -67 -60 -79 vvcurveto
          -76 90 callgsubr
          4 rlineto
          -154 vlineto
          -23 -9 -22 -13 -31 hhcurveto
          -36 -27 25 50 hvcurveto
          endchar
        </CharString>
        <CharString name="a.numr">
          743 220 678 202 callsubr
        </CharString>
        <CharString name="a.sups">
          750 220 845 202 callsubr
        </CharString>
        <CharString name="aacute">
          1225 483 -82 callsubr
          -84 callgsubr
          -54 -1130 -97 callsubr
          -94 callsubr
        </CharString>
        <CharString name="abreve">
          1225 564 160 callsubr
          -65 vlineto
          -4 128 callsubr
          -207 -1157 -97 callsubr
          -94 callsubr
        </CharString>
        <CharString name="abreveacute">
          1225 881 136 callsubr
          316 -301 100 callsubr
        </CharString>
        <CharString name="abrevecyrillic">
          1225 564 1130 rmoveto
          207 140 114 140 87 -57 58 -83 -79 -57 -61 -77 -76 56 -57 71 hvcurveto
          1 hlineto
          -37 -48 -68 -23 -83 hhcurveto
          -82 -68 23 37 -48 hvcurveto
          2 hlineto
          70 56 57 76 77 -58 61 -77 -84 -57 -58 -87 -140 140 -114 206 hvcurveto
          -207 -1151 -97 callsubr
          -94 callsubr
        </CharString>
        <CharString name="abrevedotbelow">
          1225 564 160 callsubr
          -65 vlineto
          -4 128 callsubr
          -207 -1157 -97 callsubr
          52 callsubr
          176 -715 -88 callsubr
          -79 callsubr
        </CharString>
        <CharString name="abrevegrave">
          1225 248 94 callgsubr
          316 -601 100 callsubr
        </CharString>
        <CharString name="abrevehookabove">
          1225 554 1660 rmoveto
          -93 -71 -44 -62 -40 hvcurveto
          -42 vlineto
          17 24 48 16 46 hhcurveto
          73 -40 callgsubr
          160 -80 callgsubr
          -113 vhcurveto
          10 -566 100 callsubr
        </CharString>
        <CharString name="abrevetilde">
          213 callsubr
          -127 -331 100 callsubr
        </CharString>
        <CharString name="acaron">
          1225 838 -67 callsubr
          -13 callsubr
          -553 -1544 -97 callsubr
          -94 callsubr
        </CharString>
        <CharString name="acircumflex">
          1225 291 -72 callsubr
          -53 callsubr
          138 -1130 -97 callsubr
          -94 callsubr
        </CharString>
        <CharString name="acircumflexacute">
          1225 881 136 callsubr
          -303 vmoveto
          316 94 317 -94 0 57 -295 -97 callgsubr
          109 -1170 -97 callsubr
          -94 callsubr
        </CharString>
        <CharString name="acircumflexdotbelow">
          1225 291 -72 callsubr
          -53 callsubr
          138 -1130 -97 callsubr
          52 callsubr
          176 -715 -88 callsubr
          -79 callsubr
        </CharString>
        <CharString name="acircumflexgrave">
          1225 248 94 callgsubr
          -603 vmoveto
          316 94 317 -94 0 57 -295 -97 callgsubr
          109 -1170 -97 callsubr
          -94 callsubr
        </CharString>
        <CharString name="acircumflexhookabove">
          1225 807 1660 rmoveto
          -92 -27 callgsubr
          47 hhcurveto
          73 -40 callgsubr
          160 24 78 51 93 vvcurveto
          90 -85 59 -83 callgsubr
          316 94 317 -94 0 57 -295 -97 callgsubr
          109 -1170 -97 callsubr
          -94 callsubr
        </CharString>
        <CharString name="acircumflextilde">
          213 callsubr
          -443 -333 rmoveto
          316 94 317 -94 0 57 -295 -97 callgsubr
          109 -1170 -97 callsubr
          -94 callsubr
        </CharString>
        <CharString name="acute">
          1024 431 -82 callsubr
          3 callsubr
          endchar
        </CharString>
        <CharString name="acutecmb">
          0 -81 -82 callsubr
          3 callsubr
          endchar
        </CharString>
        <CharString name="acutecmb.short">
          0 -67 1088 rmoveto
          427 294 rlineto
          6 -393 vlineto
          -106 -299 rlineto
          endchar
        </CharString>
        <CharString name="acutedotaccentcmb">
          0 1371 vmoveto
          179 callsubr
          -168 35 callsubr
          -55 vlineto
          endchar
        </CharString>
        <CharString name="acutedotaccentcmb.short">
          0 1770 vmoveto
          65 callgsubr
          325 -149 rmoveto
          166 vlineto
          -650 -209 rlineto
          -46 vlineto
          endchar
        </CharString>
        <CharString name="acyrillic">
          79 callsubr
          -94 callsubr
        </CharString>
        <CharString name="adblgrave">
          1225 361 1497 rmoveto
          -349 -7 hlineto
          387 -381 rlineto
          80 hlineto
          301 388 rmoveto
          -318 -7 hlineto
          261 -381 rlineto
          76 hlineto
          -442 -1130 -97 callsubr
          -94 callsubr
        </CharString>
        <CharString name="adieresis">
          1225 323 -6 callsubr
          0 callsubr
          77 callsubr
          -76 callgsubr
          -449 -1170 -97 callsubr
          -94 callsubr
        </CharString>
        <CharString name="adieresismacron">
          1225 247 1447 -35 callsubr
          144 -492 rmoveto
          69 56 49 68 70 -56 73 callsubr
          32 callsubr
          49 -69 hvcurveto
          -13 -12 callgsubr
          -381 -1131 -97 callsubr
          -94 callsubr
        </CharString>
        <CharString name="adotaccent">
          1225 564 -24 callsubr
          -89 callgsubr
          -207 -1160 -97 callsubr
          -94 callsubr
        </CharString>
        <CharString name="adotbelow">
          79 callsubr
          52 callsubr
          176 -715 -88 callsubr
          -79 callsubr
        </CharString>
        <CharString name="adotmacron">
          1225 247 1435 -35 callsubr
          317 -487 rmoveto
          74 59 53 75 75 -59 53 -74 -73 -59 -53 -75 -75 59 -53 73 hvcurveto
          -207 -1124 -97 callsubr
          -94 callsubr
        </CharString>
        <CharString name="ae">
          1705 362 -21 146 callsubr
        </CharString>
        <CharString name="aeacute">
          1705 807 -82 callsubr
          3 callsubr
          -373 -1130 146 callsubr
        </CharString>
        <CharString name="aemacron">
          1705 549 80 callsubr
          -187 -1409 146 callsubr
        </CharString>
        <CharString name="agrave">
          1225 647 97 callgsubr
          159 -1511 -97 callsubr
          -94 callsubr
        </CharString>
        <CharString name="ahookabove">
          1225 620 -61 callgsubr
          -91 -49 hvcurveto
          69 235 callsubr
          -263 -1535 -97 callsubr
          -94 callsubr
        </CharString>
        <CharString name="ainvertedbreve">
          1225 564 1497 rmoveto
          -233 46 callgsubr
          153 153 118 -69 -103 vhcurveto
          -1 65 vlineto
          4 19 2 22 23 vvcurveto
          160 -108 163 -234 vhcurveto
          -207 -1518 -97 callsubr
          -94 callsubr
        </CharString>
        <CharString name="alphagreek">
          1379 472 -20 192 callsubr
        </CharString>
        <CharString name="alphatonosgreek">
          1379 658 1110 -52 callgsubr
          -108 -1130 192 callsubr
        </CharString>
        <CharString name="amacron">
          1225 225 80 callsubr
          132 -1409 -97 callsubr
          -94 callsubr
        </CharString>
        <CharString name="ampersand">
          1711 517 -22 rmoveto
          186 133 72 142 141 hvcurveto
          176 -192 rlineto
          551 55 hlineto
          -67 19 -63 45 -158 168 rrcurveto
          -186 203 132 166 135 167 52 39 102 17 rlinecurve
          57 vlineto
          -413 -4 rlineto
          -56 vlineto
          109 -15 32 -44 -93 -140 rrcurveto
          -96 -144 -296 321 -7 8 -7 7 -7 8 rlinecurve
          212 53 142 104 146 vvcurveto
          164 -156 124 -282 -303 -186 -156 -204 -111 47 -97 100 -124 vhcurveto
          -246 -60 -137 -149 -1 -193 rrcurveto
          -228 -2 185 -168 271 hhcurveto
          136 1263 rmoveto
          99 57 50 79 92 53 -94 -124 -1 vhcurveto
          -2 -100 -34 -88 -70 -57 rrcurveto
          -127 143 -47 80 91 vvcurveto
          -248 -694 rmoveto
          73 25 63 58 44 vhcurveto
          32 -38 37 -40 41 -44 335 -365 rcurveline
          -36 -59 -59 -14 -62 hhcurveto
          -193 -154 154 203 -1 hvcurveto
          endchar
        </CharString>
        <CharString name="anoteleiagreek">
          558 279 637 16 callgsubr
          endchar
        </CharString>
        <CharString name="aogonek">
          79 callsubr
          -112 21 126 -59 129 hhcurveto
          20 20 1 2 19 hvcurveto
          -211 -98 -76 -96 -102 vvcurveto
          -107 92 -67 122 112 100 58 87 39 vhcurveto
          56 vlineto
          -16 -16 -28 -10 -31 hhcurveto
          -50 -42 31 67 86 59 82 101 79 hvcurveto
          54 vlineto
          -3 -9 -14 -2 -14 hhcurveto
          -51 -40 35 81 hvcurveto
          463 vlineto
          247 -180 111 -313 -305 -176 -121 -145 -90 74 -67 94 95 75 71 91 72 -47 59 -64 20 vhcurveto
          13 37 41 7 43 hhcurveto
          157 84 -71 -180 hvcurveto
          -105 vlineto
          -192 -38 rlineto
          -324 -62 -117 -108 -152 vvcurveto
          -145 117 -97 179 vhcurveto
          88 302 rmoveto
          113 54 77 144 35 vhcurveto
          51 11 rlineto
          -316 vlineto
          -49 -20 -45 -28 -60 hhcurveto
          -71 -53 54 103 hvcurveto
          endchar
        </CharString>
        <CharString name="approxequal">
          1264 900 770 rmoveto
          -41 callgsubr
          -123 -260 hvcurveto
          107 hlineto
          182 1 69 78 98 165 168 -262 197 hhcurveto
          166 107 125 259 hvcurveto
          -107 hlineto
          -180 -1 -68 -81 -100 hhcurveto
          -511 vmoveto
          -41 callgsubr
          -124 -260 hvcurveto
          107 hlineto
          182 21 callgsubr
          -180 -1 -68 -80 -100 hhcurveto
          endchar
        </CharString>
        <CharString name="aring">
          1225 246 1314 rmoveto
          -121 130 -79 188 189 130 78 123 120 60 callgsubr
          35 61 52 53 35 -60 -85 -87 -35 -58 -53 -52 -35 58 86 vhcurveto
          -120 -1335 -97 callsubr
          -94 callsubr
        </CharString>
        <CharString name="aringacute">
          1225 881 1503 rmoveto
          194 vlineto
          -633 -245 rlineto
          -54 vlineto
          350 -298 rmoveto
          163 109 55 84 84 -109 55 -163 hvcurveto
          -67 hlineto
          -163 -110 -55 -84 -84 110 -55 163 hvcurveto
          45 52 rmoveto
          -24 hlineto
          -47 -27 35 52 52 28 35 46 hvcurveto
          24 hlineto
          47 27 -35 -52 -52 -27 -35 -47 hvcurveto
          -219 -1173 -97 callsubr
          -94 callsubr
        </CharString>
        <CharString name="aringbelow">
          79 callsubr
          52 callsubr
          -143 -561 155 callsubr
        </CharString>
        <CharString name="asciicircum">
          1264 599 1444 rmoveto
          -451 -595 82 -77 399 527 402 -529 86 78 -452 596 rlineto
          endchar
        </CharString>
        <CharString name="asciitilde">
          1264 900 504 rmoveto
          -41 callgsubr
          -124 -259 hvcurveto
          107 hlineto
          181 21 callgsubr
          -179 -1 -68 -81 -100 hhcurveto
          endchar
        </CharString>
        <CharString name="asterisk">
          813 396 1107 rmoveto
          21 hlineto
          71 184 rlineto
          108 45 -65 68 -61 hhcurveto
          -64 -64 -67 -109 46 hvcurveto
          101 -189 rmoveto
          11 -19 194 32 rlineto
          117 16 25 88 -31 54 -32 56 -90 23 -71 -95 rrcurveto
          -172 -174 rmoveto
          10 19 -123 154 rlineto
          -71 95 -90 -24 -31 -54 -32 -56 25 -87 118 -16 rrcurveto
          204 -59 rmoveto
          -10 20 -194 -32 rlineto
          -116 -16 -26 -89 31 -53 33 -56 89 -24 71 95 rrcurveto
          172 175 rmoveto
          -11 -19 123 -155 rlineto
          71 -95 91 25 31 54 32 56 -26 86 -116 16 rrcurveto
          -214 7 rmoveto
          -22 hlineto
          -71 -184 rlineto
          -108 -45 66 -68 61 hhcurveto
          64 63 67 109 -45 hvcurveto
          endchar
        </CharString>
        <CharString name="at">
          2079 544 388 rmoveto
          -216 92 -123 152 135 123 94 175 62 vhcurveto
          -2 -12 -5 -33 -12 vvcurveto
          -140 -3 75 -111 217 hhcurveto
          415 206 339 332 458 -384 316 -524 -540 -499 -399 -630 -531 402 -329 462 1 hvcurveto
          165 182 36 89 116 hvcurveto
          -2 59 rlineto
          -88 -136 -157 -20 -155 hhcurveto
          -429 -1 -361 299 487 vvcurveto
          590 467 361 485 485 336 -289 -421 -338 -211 -210 -187 -92 -35 53 111 23 vhcurveto
          150 700 -177 0 -171 -125 rlineto
          86 -31 -74 58 -115 hhcurveto
          -277 -183 -300 -316 hvcurveto
          343 -2 rmoveto
          188 89 321 142 51 35 -39 -77 -6 vhcurveto
          -78 -365 rlineto
          -109 -23 -61 -83 -71 hhcurveto
          -56 -22 62 102 hvcurveto
          endchar
        </CharString>
        <CharString name="atilde">
          1225 700 -42 callgsubr
          -65 hlineto
          -97 33 callsubr
          69 callgsubr
          17 hvcurveto
          65 134 callsubr
          33 -21 rlineto
          -40 61 53 -21 65 hhcurveto
          -343 -1171 -97 callsubr
          -94 callsubr
        </CharString>
        <CharString name="austral">
          1478 204 292 rmoveto
          -64 -181 -33 -34 -101 -20 rrcurveto
          -57 397 57 vlineto
          -131 22 -26 39 55 172 rrcurveto
          35 106 490 0 38 -114 55 -163 -27 -41 -132 -21 rlinecurve
          -57 717 57 vlineto
          -99 19 -35 38 -59 166 -41 116 rcurveline
          234 47 -250 hlineto
          -81 228 rlineto
          331 47 -348 hlineto
          -259 728 -260 0 -256 -728 rlineto
          -348 -47 331 hlineto
          -80 -228 rlineto
          -251 -47 234 hlineto
          201 322 rmoveto
          137 419 140 -419 rlineto
          -367 -275 rmoveto
          75 228 308 0 76 -228 rlineto
          endchar
        </CharString>
        <CharString name="austral.tnum">
          1280 2 440 rmoveto
          -47 191 vlineto
          -30 -102 -53 -180 -28 -37 -79 -17 rlinecurve
          -57 330 57 vlineto
          -104 16 -20 40 47 175 rrcurveto
          28 105 381 0 30 -110 45 -170 -20 -38 -108 -18 rlinecurve
          -57 664 57 vlineto
          -81 16 -25 42 -50 168 -32 110 rcurveline
          189 47 -203 hlineto
          -67 228 rlineto
          270 47 -284 hlineto
          -214 730 -279 0 -213 -730 rlineto
          -285 -47 271 hlineto
          -67 -228 rlineto
          164 275 rmoveto
          105 388 104 -388 rlineto
          -282 -275 rmoveto
          61 228 234 0 61 -228 rlineto
          endchar
        </CharString>
        <CharString name="b">
          -48 callgsubr
          endchar
        </CharString>
        <CharString name="backslash">
          777 568 -280 rmoveto
          139 hlineto
          -498 1860 rlineto
          -139 hlineto
          endchar
        </CharString>
        <CharString name="baht">
          1481 54 30 rmoveto
          677 -220 47 221 hlineto
          334 9 300 129 266 vvcurveto
          223 -197 121 -295 9 vhcurveto
          227 10 209 95 202 vvcurveto
          207 -215 104 -363 8 vhcurveto
          217 -47 -217 -677 -57 vlineto
          88 callgsubr
          526 1262 rmoveto
          69 -2 30 -1 27 -3 25 -5 rlinecurve
          -541 vlineto
          -1 -11 -10 -1 -11 hhcurveto
          -119 -1 rlineto
          375 274 rmoveto
          -154 -64 -83 -113 -27 vhcurveto
          521 vlineto
          120 -40 57 -94 -123 vvcurveto
          -375 -339 rmoveto
          119 -2 rlineto
          11 10 -1 -1 11 hvcurveto
          -620 vlineto
          -26 -4 -27 -3 -29 -1 -69 -2 rcurveline
          417 328 rmoveto
          -155 -74 -109 -145 -43 vhcurveto
          601 vlineto
          143 -33 76 -116 -145 vvcurveto
          endchar
        </CharString>
        <CharString name="baht.tnum">
          1280 22 36 rmoveto
          614 -225 48 226 hlineto
          304 13 263 127 253 42 callgsubr
          200 -190 101 -325 10 vhcurveto
          225 -48 -224 vlineto
          -1 -2 0 -2 hhcurveto
          -609 71 callgsubr
          492 1250 rmoveto
          52 -1 25 -1 24 -3 21 -5 rlinecurve
          -536 vlineto
          -1 -9 -10 -1 -10 hhcurveto
          -93 -1 rlineto
          316 278 rmoveto
          -150 -53 -86 -93 -29 vhcurveto
          511 vlineto
          97 -41 49 -88 -117 vvcurveto
          -316 -343 rmoveto
          93 -2 rlineto
          10 10 -1 -1 9 hvcurveto
          -614 vlineto
          -22 -5 -23 -3 -25 -1 -52 -1 rcurveline
          354 319 rmoveto
          -148 -64 -105 -120 -43 vhcurveto
          591 vlineto
          120 -35 64 -114 -146 vvcurveto
          endchar
        </CharString>
        <CharString name="bar">
          777 319 -280 rmoveto
          139 1860 -139 hlineto
          endchar
        </CharString>
        <CharString name="bdotaccent">
          1314 333 1576 189 callsubr
          917 -1062 199 callsubr
          endchar
        </CharString>
        <CharString name="bdotbelow">
          -48 callgsubr
          -192 -914 -88 callsubr
          -94 -76 -65 -90 -89 76 -65 94 hvcurveto
          endchar
        </CharString>
        <CharString name="becyrillic">
          1323 1259 499 rmoveto
          294 -216 195 -354 -248 -187 -128 -197 -74 vhcurveto
          -8 39 -6 45 49 vvcurveto
          186 78 142 425 29 vhcurveto
          111 9 324 24 95 102 15 251 rlinecurve
          -59 hlineto
          -18 -50 -74 -11 -237 -23 -243 -24 -146 -56 -125 -105 rrcurveto
          -150 -126 -89 -216 -315 vvcurveto
          -385 195 -249 392 325 274 203 317 vhcurveto
          -413 -17 rmoveto
          -314 -72 -114 -108 -123 -58 166 270 284 65 142 121 116 59 -148 -286 vhcurveto
          endchar
        </CharString>
        <CharString name="betagreek">
          1312 115 -460 rmoveto
          402 hlineto
          -5 221 -4 191 -3 166 rrcurveto
          -78 47 105 -60 132 hhcurveto
          239 209 154 283 278 -169 180 -260 26 hvcurveto
          189 17 159 103 175 vvcurveto
          195 -171 126 -323 -329 -212 -165 -417 -1 vhcurveto
          371 204 rmoveto
          196 45 103 120 106 50 -98 -161 -157 -66 -96 -143 -9 vhcurveto
          1 -271 rlineto
          174 -10 105 -106 -185 vvcurveto
          -170 -96 -74 -109 -76 -70 33 53 -29 vhcurveto
          -9 500 -3 260 192 vvcurveto
          endchar
        </CharString>
        <CharString name="bitcoin">
          1469 54 30 rmoveto
          526 -218 47 218 100 hlineto
          44 44 2 4 43 hvcurveto
          -225 47 231 vlineto
          275 37 222 128 228 vvcurveto
          223 -198 121 -295 9 vhcurveto
          228 10 209 95 202 vvcurveto
          179 -162 103 -279 28 vhcurveto
          226 -47 -221 vlineto
          3 -42 -43 1 -46 hhcurveto
          -100 217 -47 -217 -526 -57 hlineto
          88 callgsubr
          891 981 rmoveto
          -187 -94 -83 -162 -3 vhcurveto
          -109 -1 0 555 60 -2 rlineto
          208 -7 97 -111 -161 vvcurveto
          42 -645 rmoveto
          -196 -119 -122 -228 -8 vhcurveto
          -60 -2 0 634 109 -2 rlineto
          194 -4 104 -130 -170 vvcurveto
          endchar
        </CharString>
        <CharString name="bitcoin.tnum">
          1280 22 36 rmoveto
          473 -225 48 225 88 hlineto
          44 43 2 5 42 hvcurveto
          -232 48 238 vlineto
          248 39 195 124 218 42 callgsubr
          173 -143 99 -249 30 vhcurveto
          233 -47 -228 vlineto
          3 -41 -43 2 -45 hhcurveto
          -88 223 -48 -223 -473 71 callgsubr
          805 979 rmoveto
          -187 -82 -87 -141 -3 vhcurveto
          -86 -1 rlineto
          539 25 9 20 vlineto
          175 -7 89 -106 -157 vvcurveto
          38 -654 rmoveto
          -189 -107 -119 -195 -8 vhcurveto
          -45 -1 0 628 86 -2 rlineto
          170 -4 91 -133 -172 vvcurveto
          endchar
        </CharString>
        <CharString name="blinebelow">
          -48 callgsubr
          -508 -845 -78 callsubr
        </CharString>
        <CharString name="braceleft">
          777 565 1035 rmoveto
          219 vlineto
          151 11 117 165 vhcurveto
          58 -39 vlineto
          -336 -151 -128 -256 hvcurveto
          -316 vlineto
          -155 -65 -48 -123 vhcurveto
          -55 vlineto
          123 65 -49 -157 hvcurveto
          -312 vlineto
          -256 151 -128 336 vhcurveto
          39 58 hlineto
          -165 -11 117 152 hvcurveto
          217 vlineto
          240 -135 116 -285 30 vhcurveto
          286 29 134 116 240 vvcurveto
          endchar
        </CharString>
        <CharString name="braceright">
          777 211 1035 rmoveto
          -240 135 -116 286 -29 vhcurveto
          -285 -30 -136 -116 -240 vvcurveto
          -217 vlineto
          -152 -11 -117 -163 vhcurveto
          -58 38 vlineto
          336 150 128 256 hvcurveto
          312 vlineto
          157 66 49 122 vhcurveto
          55 vlineto
          -122 -66 48 155 hvcurveto
          316 vlineto
          256 -150 128 -336 vhcurveto
          -38 -58 hlineto
          163 11 -117 -151 hvcurveto
          endchar
        </CharString>
        <CharString name="bracketleft">
          777 173 -286 rmoveto
          558 6 0 59 -218 12 0 1718 218 12 0 59 -558 6 rlineto
          endchar
        </CharString>
        <CharString name="bracketright">
          777 604 1586 rmoveto
          -558 -6 0 -59 217 -12 0 -1718 -217 -12 0 -59 558 -6 rlineto
          endchar
        </CharString>
        <CharString name="breve">
          1024 512 1136 rmoveto
          6 callgsubr
          127 callsubr
          endchar
        </CharString>
        <CharString name="breveacutecmb">
          122 callsubr
          317 -301 106 callsubr
        </CharString>
        <CharString name="breveacutecmb.short">
          0 325 89 callsubr
          325 -247 -27 callsubr
          110 callsubr
        </CharString>
        <CharString name="brevebelowcmb">
          0 -454 vmoveto
          217 100 146 144 22 -1 19 -4 17 hvcurveto
          -61 -1 hlineto
          -94 -108 -61 -143 -142 -109 63 92 vhcurveto
          1 -61 vlineto
          -4 -18 -1 -18 -22 vvcurveto
          -144 100 -146 217 vhcurveto
          endchar
        </CharString>
        <CharString name="brevecmb">
          0 1136 vmoveto
          6 callgsubr
          127 callsubr
          endchar
        </CharString>
        <CharString name="brevecmb.short">
          0 1120 vmoveto
          209 99 141 139 20 -102 callgsubr
          -60 -136 -135 -106 62 91 vhcurveto
          2 -63 vlineto
          -3 133 callsubr
          endchar
        </CharString>
        <CharString name="brevecyrilliccmb">
          0 1130 vmoveto
          48 callgsubr
          70 hvcurveto
          2 hlineto
          -37 -48 40 callgsubr
          -83 -58 -28 callgsubr
          endchar
        </CharString>
        <CharString name="brevecyrilliccmb.short">
          0 1554 vmoveto
          204 139 107 137 79 50 callgsubr
          -77 -68 102 callgsubr
          -78 -56 -58 -79 -137 139 -107 204 vhcurveto
          endchar
        </CharString>
        <CharString name="brevegravecmb">
          0 -317 -60 callgsubr
          317 -601 106 callsubr
        </CharString>
        <CharString name="brevegravecmb.short">
          0 -325 71 callsubr
          325 -502 -27 callsubr
          110 callsubr
        </CharString>
        <CharString name="brevehookabovecmb">
          0 -10 1660 rmoveto
          -93 -27 callgsubr
          47 hhcurveto
          73 -40 callgsubr
          159 24 79 51 93 vvcurveto
          90 -85 59 -113 vhcurveto
          10 -566 106 callsubr
        </CharString>
        <CharString name="brevehookabovecmb.short">
          0 -10 2019 rmoveto
          -95 -73 -39 -51 -41 hvcurveto
          -36 vlineto
          14 24 49 13 48 hhcurveto
          74 25 callgsubr
          -116 vhcurveto
          10 -484 -27 callsubr
          110 callsubr
        </CharString>
        <CharString name="brevetildecmb">
          0 127 176 callsubr
          -31 -33 -65 callgsubr
          -53 callgsubr
          31 33 -45 callgsubr
          -127 -331 106 callsubr
        </CharString>
        <CharString name="brevetildecmb.short">
          0 131 1818 rmoveto
          124 73 70 127 162 callsubr
          -52 -51 36 callgsubr
          51 -12 54 hhcurveto
          -131 -283 -27 callsubr
          110 callsubr
        </CharString>
        <CharString name="brokenbar">
          777 319 789 rmoveto
          139 791 -139 hlineto
          -1860 vmoveto
          139 791 -139 hlineto
          endchar
        </CharString>
        <CharString name="bullet">
          750 375 229 callsubr
        </CharString>
        <CharString name="c">
          1098 623 -21 11 callsubr
        </CharString>
        <CharString name="cacute">
          1098 551 -82 callsubr
          3 callsubr
          144 -1130 11 callsubr
        </CharString>
        <CharString name="caret">
          558 251 hmoveto
          -289 -371 66 -64 249 319 252 -321 68 65 -290 372 rlineto
          endchar
        </CharString>
        <CharString name="caron">
          1024 786 -67 callsubr
          29 callsubr
          226 0 233 388 rlineto
          endchar
        </CharString>
        <CharString name="caroncmb">
          0 274 -67 callsubr
          29 callsubr
          226 0 233 388 rlineto
          endchar
        </CharString>
        <CharString name="caroncmb.short">
          0 274 1407 rmoveto
          -257 -132 83 callsubr
          228 0 214 299 rlineto
          endchar
        </CharString>
        <CharString name="carondotaccentcmb">
          0 1371 vmoveto
          179 callsubr
          104 callgsubr
          42 0 296 225 rlineto
          endchar
        </CharString>
        <CharString name="carondotaccentcmb.short">
          0 1791 vmoveto
          71 54 46 63 63 -54 45 -71 -70 -55 -45 -63 -63 54 -46 71 hvcurveto
          333 -4 rmoveto
          -333 -79 -333 79 0 -48 311 -191 45 0 311 191 rlineto
          endchar
        </CharString>
        <CharString name="caronslovak">
          1024 413 1089 rmoveto
          257 -19 callgsubr
        </CharString>
        <CharString name="caronslovakcmb">
          0 75 1089 rmoveto
          256 -19 callgsubr
        </CharString>
        <CharString name="ccaron">
          1098 906 -67 callsubr
          29 callsubr
          226 0 233 388 rlineto
          -355 -1544 11 callsubr
        </CharString>
        <CharString name="ccedilla">
          1098 597 -462 rmoveto
          -29 callsubr
          63 71 177 6 148 69 76 107 rlinecurve
          154 callsubr
          -310 228 -192 287 -17 vhcurveto
          -131 -152 -56 callsubr
          -42 callsubr
          112 callsubr
        </CharString>
        <CharString name="ccedillaacute">
          1098 551 -82 callsubr
          3 callsubr
          118 -1571 rmoveto
          -29 callsubr
          63 71 177 6 148 69 76 107 rlinecurve
          154 callsubr
          -310 228 -192 287 -17 vhcurveto
          -131 -152 -56 callsubr
          -42 callsubr
          112 callsubr
        </CharString>
        <CharString name="ccircumflex">
          1098 358 -72 callsubr
          30 callsubr
          -226 0 -233 -388 rlineto
          337 -1130 11 callsubr
        </CharString>
        <CharString name="cdotaccent">
          1098 632 -24 callsubr
          1 callsubr
          -9 -1160 11 callsubr
        </CharString>
        <CharString name="cedi">
          1353 831 -188 rmoveto
          48 201 hlineto
          160 3 162 36 78 51 12 352 rcurveline
          -55 hlineto
          -248 -57 -129 -117 -171 hhcurveto
          1265 vlineto
          182 122 -139 -226 52 hvcurveto
          53 hlineto
          -11 353 -82 49 -134 36 -182 3 rlinecurve
          200 -48 -200 vlineto
          -442 -8 -303 -283 -417 vvcurveto
          -423 299 -278 446 -9 vhcurveto
          -331 732 rmoveto
          346 126 230 205 30 vhcurveto
          -1257 vlineto
          -217 33 -114 272 346 vvcurveto
          endchar
        </CharString>
        <CharString name="cedi.tnum">
          1280 782 -188 rmoveto
          48 200 hlineto
          145 5 143 32 73 46 10 360 rcurveline
          -54 hlineto
          -53 -243 -113 -120 -151 -3 rrcurveto
          1266 vlineto
          156 -3 110 -142 47 -219 rrcurveto
          54 hlineto
          -9 359 -78 44 -121 34 -159 4 rlinecurve
          199 -48 -199 vlineto
          -417 -8 -286 -285 -417 vvcurveto
          -429 282 -274 421 -7 vhcurveto
          -292 732 rmoveto
          346 112 230 180 31 vhcurveto
          -1258 vlineto
          -192 33 -100 266 352 vvcurveto
          endchar
        </CharString>
        <CharString name="cedilla">
          1024 488 -462 rmoveto
          141 119 67 122 117 -106 67 -125 -15 -15 -1 -2 -13 hvcurveto
          78 92 rlineto
          31 -45 vlineto
          -168 -202 1 -44 rlineto
          5 9 21 4 17 hhcurveto
          54 38 -25 -43 -44 -40 -24 -59 -47 -48 14 20 -25 hvcurveto
          -1 -54 rlineto
          -59 38 88 -41 103 hhcurveto
          endchar
        </CharString>
        <CharString name="cedillacmb">
          0 -24 -462 rmoveto
          -29 callsubr
          74 82 rlineto
          31 -45 vlineto
          -168 -193 -56 callsubr
          -42 callsubr
          115 callsubr
          endchar
        </CharString>
        <CharString name="cent">
          1119 616 24 callgsubr
          -52 -97 -29 -95 -2 callgsubr
          92 89 1 callgsubr
          248 -194 304 vhcurveto
          -157 594 rmoveto
          161 61 117 99 53 vhcurveto
          -696 vlineto
          -96 70 -64 123 172 vvcurveto
          endchar
        </CharString>
        <CharString name="cent.1">
          1094 659 -1 rmoveto
          200 vlineto
          171 10 142 68 74 103 rrcurveto
          57 vlineto
          -44 -47 -86 -30 -87 hhcurveto
          -197 -164 152 277 225 111 139 161 36 32 -6 -10 29 hvcurveto
          -73 -15 -55 -64 -80 vvcurveto
          -90 74 -71 93 89 75 71 96 149 -137 103 -241 7 vhcurveto
          198 -47 -198 vlineto
          -318 -10 -230 -209 -309 92 callgsubr
        </CharString>
</ttFont>
